<?xml version="1.0" encoding="utf-8"?>
<!-- Generator: Adobe Illustrator 16.0.0, SVG Export Plug-In . SVG Version: 6.00 Build 0)  -->
<!DOCTYPE svg PUBLIC "-//W3C//DTD SVG 1.1//EN" "http://www.w3.org/Graphics/SVG/1.1/DTD/svg11.dtd">
<svg version="1.1" id="Layer_1" xmlns="http://www.w3.org/2000/svg" xmlns:xlink="http://www.w3.org/1999/xlink" x="0px" y="0px"
	 width="267.875px" height="45.982px" viewBox="0 0 267.875 45.982" enable-background="new 0 0 267.875 45.982"
	 xml:space="preserve">
<g>
	<path fill="#FFFFFF" d="M1.716,21.958h3.979v14.196h6.968v3.328H1.716V21.958z"/>
	<path fill="#FFFFFF" d="M17.68,34.386c0.13,1.638,1.742,2.418,3.588,2.418c1.352,0,2.444-0.182,3.51-0.52l0.52,2.678
		c-1.3,0.52-2.886,0.78-4.602,0.78c-4.316,0-6.787-2.496-6.787-6.474c0-3.224,2.002-6.786,6.422-6.786
		c4.108,0,5.668,3.198,5.668,6.344c0,0.676-0.078,1.274-0.13,1.56H17.68z M22.334,31.682c0-0.962-0.416-2.574-2.236-2.574
		c-1.664,0-2.34,1.508-2.444,2.574H22.334z"/>
	<path fill="#FFFFFF" d="M35.594,39.482l-0.234-1.274h-0.078c-0.832,1.014-2.132,1.56-3.64,1.56c-2.574,0-4.108-1.872-4.108-3.9
		c0-3.302,2.964-4.888,7.462-4.862v-0.182c0-0.676-0.364-1.638-2.314-1.638c-1.3,0-2.678,0.442-3.51,0.962L28.444,27.6
		c0.884-0.494,2.626-1.118,4.94-1.118c4.238,0,5.59,2.496,5.59,5.486v4.42c0,1.222,0.052,2.392,0.182,3.094H35.594z M35.126,33.476
		c-2.08-0.026-3.692,0.468-3.692,2.002c0,1.014,0.676,1.508,1.56,1.508c0.988,0,1.794-0.65,2.054-1.456
		c0.052-0.208,0.078-0.442,0.078-0.676V33.476z"/>
	<path fill="#FFFFFF" d="M42.094,30.824c0-1.586-0.052-2.938-0.104-4.056h3.432l0.182,1.742h0.078
		c0.52-0.806,1.82-2.028,3.926-2.028c2.6,0,4.55,1.716,4.55,5.46v7.54h-3.952v-7.046c0-1.638-0.572-2.756-2.002-2.756
		c-1.092,0-1.742,0.754-2.002,1.482c-0.104,0.234-0.156,0.624-0.156,0.988v7.332h-3.952V30.824z"/>
	<path fill="#FFFFFF" d="M69.655,21.021v14.665c0,1.43,0.052,2.938,0.104,3.796h-3.51l-0.182-1.872h-0.052
		c-0.806,1.43-2.34,2.158-3.979,2.158c-3.016,0-5.434-2.574-5.434-6.526c-0.026-4.29,2.652-6.76,5.694-6.76
		c1.56,0,2.782,0.546,3.354,1.43h0.052v-6.891H69.655z M65.703,32.15c0-0.208-0.026-0.494-0.052-0.702
		c-0.234-1.066-1.092-1.95-2.314-1.95c-1.794,0-2.73,1.612-2.73,3.614c0,2.158,1.066,3.51,2.704,3.51
		c1.144,0,2.054-0.78,2.288-1.898c0.078-0.286,0.104-0.572,0.104-0.91V32.15z"/>
	<path fill="#FFFFFF" d="M72.826,30.954c0-1.872-0.052-3.094-0.104-4.186h3.406l0.13,2.34h0.104c0.65-1.846,2.21-2.626,3.432-2.626
		c0.364,0,0.546,0,0.832,0.052v3.718c-0.286-0.052-0.624-0.104-1.066-0.104c-1.456,0-2.444,0.78-2.704,2.002
		c-0.052,0.26-0.078,0.572-0.078,0.884v6.448h-3.952V30.954z"/>
	<path fill="#FFFFFF" d="M95.056,32.982c0,4.654-3.302,6.786-6.708,6.786c-3.718,0-6.578-2.444-6.578-6.552
		c0-4.108,2.704-6.734,6.786-6.734C92.456,26.481,95.056,29.16,95.056,32.982z M85.852,33.112c0,2.184,0.91,3.822,2.601,3.822
		c1.534,0,2.522-1.534,2.522-3.822c0-1.898-0.728-3.822-2.522-3.822C86.554,29.29,85.852,31.24,85.852,33.112z"/>
	<path fill="#FFFFFF" d="M102.882,22.191c1.222-0.208,2.938-0.364,5.356-0.364c2.444,0,4.186,0.468,5.356,1.404
		c1.118,0.884,1.872,2.34,1.872,4.056c0,1.716-0.572,3.172-1.612,4.16c-1.352,1.274-3.354,1.846-5.694,1.846
		c-0.52,0-0.988-0.026-1.352-0.078v6.266h-3.926V22.191z M106.808,30.147c0.338,0.078,0.754,0.104,1.326,0.104
		c2.106,0,3.406-1.066,3.406-2.86c0-1.612-1.118-2.574-3.094-2.574c-0.806,0-1.352,0.078-1.638,0.156V30.147z"/>
	<path fill="#FFFFFF" d="M121.706,23.231c0,1.092-0.832,1.976-2.132,1.976c-1.248,0-2.08-0.884-2.054-1.976
		c-0.026-1.144,0.806-2.002,2.08-2.002C120.874,21.229,121.68,22.087,121.706,23.231z M117.624,39.482V26.768h3.952v12.714H117.624z
		"/>
	<path fill="#FFFFFF" d="M124.747,30.954c0-1.872-0.052-3.094-0.104-4.186h3.406l0.13,2.34h0.104c0.65-1.846,2.21-2.626,3.432-2.626
		c0.364,0,0.546,0,0.832,0.052v3.718c-0.286-0.052-0.624-0.104-1.066-0.104c-1.456,0-2.444,0.78-2.704,2.002
		c-0.052,0.26-0.078,0.572-0.078,0.884v6.448h-3.952V30.954z"/>
	<path fill="#FFFFFF" d="M137.461,34.386c0.13,1.638,1.742,2.418,3.588,2.418c1.352,0,2.444-0.182,3.51-0.52l0.52,2.678
		c-1.3,0.52-2.886,0.78-4.602,0.78c-4.316,0-6.787-2.496-6.787-6.474c0-3.224,2.002-6.786,6.422-6.786
		c4.108,0,5.668,3.198,5.668,6.344c0,0.676-0.078,1.274-0.13,1.56H137.461z M142.115,31.682c0-0.962-0.416-2.574-2.236-2.574
		c-1.664,0-2.34,1.508-2.444,2.574H142.115z"/>
	<path fill="#FFFFFF" d="M148.121,36.024c0.728,0.442,2.236,0.962,3.406,0.962c1.196,0,1.69-0.416,1.69-1.066
		s-0.39-0.962-1.872-1.456c-2.626-0.884-3.64-2.314-3.614-3.822c0-2.366,2.028-4.16,5.175-4.16c1.481,0,2.808,0.338,3.588,0.728
		l-0.702,2.73c-0.572-0.312-1.664-0.728-2.757-0.728c-0.961,0-1.507,0.39-1.507,1.04c0,0.598,0.494,0.91,2.054,1.456
		c2.418,0.832,3.432,2.054,3.458,3.926c0,2.366-1.872,4.108-5.512,4.108c-1.664,0-3.146-0.364-4.108-0.884L148.121,36.024z"/>
	<path fill="#FFFFFF" d="M177.007,21.021v14.665c0,1.43,0.052,2.938,0.104,3.796h-3.51l-0.182-1.872h-0.053
		c-0.806,1.43-2.34,2.158-3.979,2.158c-3.016,0-5.434-2.574-5.434-6.526c-0.025-4.29,2.652-6.76,5.694-6.76
		c1.56,0,2.782,0.546,3.354,1.43h0.052v-6.891H177.007z M173.055,32.15c0-0.208-0.026-0.494-0.052-0.702
		c-0.234-1.066-1.092-1.95-2.314-1.95c-1.794,0-2.73,1.612-2.73,3.614c0,2.158,1.066,3.51,2.705,3.51
		c1.144,0,2.053-0.78,2.287-1.898c0.078-0.286,0.104-0.572,0.104-0.91V32.15z"/>
	<path fill="#FFFFFF" d="M183.22,34.386c0.131,1.638,1.742,2.418,3.588,2.418c1.353,0,2.445-0.182,3.511-0.52l0.521,2.678
		c-1.301,0.52-2.887,0.78-4.604,0.78c-4.315,0-6.785-2.496-6.785-6.474c0-3.224,2.002-6.786,6.422-6.786
		c4.107,0,5.668,3.198,5.668,6.344c0,0.676-0.078,1.274-0.13,1.56H183.22z M187.875,31.682c0-0.962-0.416-2.574-2.236-2.574
		c-1.664,0-2.34,1.508-2.443,2.574H187.875z"/>
	<path fill="#FFFFFF" d="M199.418,35.4c1.065,0.546,2.704,1.092,4.394,1.092c1.82,0,2.783-0.754,2.783-1.898
		c0-1.092-0.832-1.716-2.939-2.47c-2.912-1.014-4.81-2.626-4.81-5.174c0-2.99,2.496-5.278,6.63-5.278
		c1.977,0,3.433,0.416,4.473,0.884l-0.885,3.198c-0.701-0.338-1.949-0.832-3.666-0.832c-1.715,0-2.547,0.78-2.547,1.69
		c0,1.118,0.987,1.612,3.25,2.47c3.094,1.144,4.55,2.756,4.55,5.226c0,2.938-2.263,5.434-7.072,5.434
		c-2.003,0-3.978-0.52-4.966-1.066L199.418,35.4z"/>
	<path fill="#FFFFFF" d="M225.939,32.982c0,4.654-3.303,6.786-6.709,6.786c-3.718,0-6.578-2.444-6.578-6.552
		c0-4.108,2.704-6.734,6.787-6.734C223.338,26.481,225.939,29.16,225.939,32.982z M216.734,33.112c0,2.184,0.91,3.822,2.6,3.822
		c1.535,0,2.523-1.534,2.523-3.822c0-1.898-0.729-3.822-2.523-3.822C217.436,29.29,216.734,31.24,216.734,33.112z"/>
	<path fill="#FFFFFF" d="M240.369,35.4c0,1.664,0.052,3.016,0.104,4.082h-3.432l-0.182-1.794h-0.078
		c-0.494,0.78-1.69,2.08-3.979,2.08c-2.574,0-4.473-1.612-4.473-5.538v-7.462h3.979v6.838c0,1.846,0.598,2.964,1.977,2.964
		c1.092,0,1.715-0.754,1.976-1.378c0.104-0.234,0.13-0.546,0.13-0.858v-7.566h3.979V35.4z"/>
	<path fill="#FFFFFF" d="M242.525,37.22l4.005-5.018c0.728-0.858,1.3-1.482,2.028-2.262v-0.052h-5.59v-3.12h10.4v2.366l-3.822,4.811
		c-0.703,0.832-1.353,1.638-2.08,2.34v0.052h6.109v3.146h-11.051V37.22z"/>
	<path fill="#FFFFFF" d="M262.962,39.482l-0.234-1.274h-0.078c-0.832,1.014-2.133,1.56-3.641,1.56c-2.574,0-4.107-1.872-4.107-3.9
		c0-3.302,2.964-4.888,7.462-4.862v-0.182c0-0.676-0.364-1.638-2.313-1.638c-1.301,0-2.679,0.442-3.511,0.962l-0.728-2.548
		c0.883-0.494,2.625-1.118,4.939-1.118c4.238,0,5.59,2.496,5.59,5.486v4.42c0,1.222,0.053,2.392,0.183,3.094H262.962z
		 M262.494,33.476c-2.08-0.026-3.691,0.468-3.691,2.002c0,1.014,0.676,1.508,1.56,1.508c0.987,0,1.794-0.65,2.054-1.456
		c0.053-0.208,0.078-0.442,0.078-0.676V33.476z"/>
</g>
<g>
	<path fill="#FFFFFF" d="M76.348,2.748c0.849-0.128,1.857-0.224,2.961-0.224c2.001,0,3.425,0.464,4.37,1.344
		c0.96,0.88,1.521,2.129,1.521,3.874c0,1.761-0.544,3.201-1.552,4.194c-1.009,1.008-2.673,1.553-4.77,1.553
		c-0.993,0-1.825-0.048-2.529-0.128V2.748z M77.74,12.288c0.353,0.064,0.865,0.08,1.409,0.08c2.977,0,4.594-1.665,4.594-4.578
		c0.016-2.545-1.424-4.162-4.37-4.162c-0.72,0-1.265,0.064-1.633,0.144V12.288z"/>
	<path fill="#FFFFFF" d="M87.804,9.774c0.032,1.905,1.249,2.689,2.657,2.689c1.008,0,1.617-0.176,2.145-0.4l0.24,1.008
		c-0.496,0.224-1.344,0.48-2.577,0.48c-2.385,0-3.81-1.569-3.81-3.906s1.376-4.178,3.633-4.178c2.529,0,3.201,2.225,3.201,3.649
		c0,0.288-0.032,0.512-0.048,0.656H87.804z M91.934,8.766c0.016-0.896-0.368-2.289-1.953-2.289c-1.425,0-2.049,1.313-2.161,2.289
		H91.934z"/>
	<path fill="#FFFFFF" d="M94.844,11.952c0.416,0.272,1.152,0.56,1.856,0.56c1.024,0,1.505-0.512,1.505-1.152
		c0-0.672-0.4-1.041-1.441-1.425c-1.393-0.496-2.049-1.264-2.049-2.193c0-1.249,1.009-2.273,2.673-2.273
		c0.784,0,1.473,0.224,1.905,0.48l-0.352,1.024c-0.304-0.192-0.865-0.448-1.585-0.448c-0.832,0-1.296,0.48-1.296,1.056
		c0,0.641,0.464,0.929,1.473,1.312c1.345,0.512,2.033,1.185,2.033,2.337c0,1.36-1.056,2.321-2.897,2.321
		c-0.849,0-1.633-0.208-2.177-0.528L94.844,11.952z"/>
	<path fill="#FFFFFF" d="M102.156,9.774c0.032,1.905,1.249,2.689,2.657,2.689c1.008,0,1.617-0.176,2.145-0.4l0.24,1.008
		c-0.496,0.224-1.344,0.48-2.577,0.48c-2.385,0-3.81-1.569-3.81-3.906s1.376-4.178,3.633-4.178c2.529,0,3.201,2.225,3.201,3.649
		c0,0.288-0.032,0.512-0.048,0.656H102.156z M106.286,8.766c0.016-0.896-0.368-2.289-1.953-2.289c-1.425,0-2.049,1.313-2.161,2.289
		H106.286z"/>
	<path fill="#FFFFFF" d="M109.387,7.742c0-0.8-0.016-1.457-0.064-2.097h1.249l0.08,1.28h0.032c0.384-0.736,1.281-1.457,2.561-1.457
		c1.073,0,2.737,0.641,2.737,3.297v4.626h-1.409V8.926c0-1.249-0.464-2.289-1.792-2.289c-0.929,0-1.649,0.656-1.889,1.441
		c-0.064,0.176-0.096,0.416-0.096,0.656v4.658h-1.409V7.742z"/>
	<path fill="#FFFFFF" d="M118.604,5.645l1.521,4.354c0.256,0.705,0.464,1.345,0.624,1.985h0.048c0.176-0.64,0.4-1.28,0.656-1.985
		l1.504-4.354h1.473l-3.041,7.747h-1.345l-2.945-7.747H118.604z"/>
	<path fill="#FFFFFF" d="M132.606,9.455c0,2.865-1.985,4.114-3.857,4.114c-2.097,0-3.713-1.537-3.713-3.986
		c0-2.593,1.696-4.114,3.841-4.114C131.102,5.469,132.606,7.085,132.606,9.455z M126.459,9.535c0,1.697,0.977,2.977,2.353,2.977
		c1.345,0,2.353-1.265,2.353-3.009c0-1.312-0.656-2.977-2.321-2.977C127.18,6.525,126.459,8.062,126.459,9.535z"/>
	<path fill="#FFFFFF" d="M134.379,2.027h1.409v11.365h-1.409V2.027z"/>
	<path fill="#FFFFFF" d="M138.699,5.645l1.521,4.354c0.256,0.705,0.464,1.345,0.624,1.985h0.048c0.176-0.64,0.4-1.28,0.656-1.985
		l1.504-4.354h1.473l-3.041,7.747h-1.345l-2.945-7.747H138.699z"/>
	<path fill="#FFFFFF" d="M147.42,3.468c0.016,0.48-0.336,0.864-0.896,0.864c-0.496,0-0.849-0.384-0.849-0.864
		c0-0.497,0.368-0.88,0.88-0.88C147.083,2.588,147.42,2.972,147.42,3.468z M145.851,13.392V5.645h1.409v7.747H145.851z"/>
	<path fill="#FFFFFF" d="M156.286,2.027v9.364c0,0.688,0.016,1.473,0.063,2.001h-1.264l-0.064-1.345h-0.032
		c-0.433,0.865-1.376,1.521-2.642,1.521c-1.872,0-3.312-1.585-3.312-3.938c-0.016-2.577,1.584-4.162,3.473-4.162
		c1.186,0,1.985,0.561,2.338,1.185h0.031V2.027H156.286z M154.876,8.798c0-0.176-0.016-0.417-0.063-0.592
		c-0.208-0.896-0.977-1.633-2.032-1.633c-1.458,0-2.322,1.281-2.322,2.993c0,1.569,0.769,2.865,2.289,2.865
		c0.945,0,1.809-0.624,2.065-1.681c0.048-0.192,0.063-0.384,0.063-0.608V8.798z"/>
	<path fill="#FFFFFF" d="M165.629,9.455c0,2.865-1.985,4.114-3.857,4.114c-2.097,0-3.714-1.537-3.714-3.986
		c0-2.593,1.697-4.114,3.842-4.114C164.125,5.469,165.629,7.085,165.629,9.455z M159.483,9.535c0,1.697,0.977,2.977,2.353,2.977
		c1.346,0,2.354-1.265,2.354-3.009c0-1.312-0.656-2.977-2.32-2.977C160.203,6.525,159.483,8.062,159.483,9.535z"/>
	<path fill="#FFFFFF" d="M170.794,8.174c0-0.992-0.031-1.792-0.064-2.529h1.266l0.062,1.329h0.033
		c0.576-0.944,1.488-1.505,2.752-1.505c1.873,0,3.281,1.585,3.281,3.938c0,2.785-1.695,4.162-3.521,4.162
		c-1.023,0-1.92-0.448-2.385-1.217h-0.031v4.21h-1.393V8.174z M172.187,10.239c0,0.208,0.031,0.4,0.064,0.576
		c0.256,0.977,1.104,1.649,2.113,1.649c1.488,0,2.352-1.217,2.352-2.993c0-1.553-0.816-2.881-2.305-2.881
		c-0.961,0-1.857,0.688-2.129,1.745c-0.047,0.176-0.096,0.384-0.096,0.576V10.239z"/>
	<path fill="#FFFFFF" d="M186.91,9.455c0,2.865-1.986,4.114-3.859,4.114c-2.096,0-3.713-1.537-3.713-3.986
		c0-2.593,1.697-4.114,3.842-4.114C185.404,5.469,186.91,7.085,186.91,9.455z M180.763,9.535c0,1.697,0.975,2.977,2.352,2.977
		c1.346,0,2.354-1.265,2.354-3.009c0-1.312-0.656-2.977-2.32-2.977C181.482,6.525,180.763,8.062,180.763,9.535z"/>
	<path fill="#FFFFFF" d="M188.683,8.062c0-0.913-0.018-1.697-0.064-2.417h1.232l0.047,1.521h0.064
		c0.352-1.041,1.201-1.697,2.145-1.697c0.16,0,0.273,0.016,0.4,0.048v1.328c-0.145-0.032-0.287-0.048-0.48-0.048
		c-0.992,0-1.695,0.752-1.889,1.809c-0.031,0.192-0.062,0.417-0.062,0.656v4.13h-1.393V8.062z"/>
</g>
</svg>
