<?xml version="1.0" encoding="utf-8"?>
<!-- Generator: Adobe Illustrator 16.0.0, SVG Export Plug-In . SVG Version: 6.00 Build 0)  -->
<!DOCTYPE svg PUBLIC "-//W3C//DTD SVG 1.1//EN" "http://www.w3.org/Graphics/SVG/1.1/DTD/svg11.dtd">
<svg version="1.1" id="Layer_1" xmlns="http://www.w3.org/2000/svg" xmlns:xlink="http://www.w3.org/1999/xlink" x="0px" y="0px"
	 width="1200px" height="630px" viewBox="0 0 1200 630" enable-background="new 0 0 1200 630" xml:space="preserve">
<rect fill="#0D6073" width="1200" height="630"/>
<g>
	<g>
		<path fill="#FFFFFF" d="M275.158,219.323c6.313,4.098,12.568,7.3,18.762,9.645c6.197,2.339,11.985,3.503,17.354,3.503
			c5.148,0,9.064-0.721,11.75-2.192c2.691-1.465,4.038-3.656,4.038-6.575c0-1.507-0.59-2.718-1.758-3.599
			c-1.17-0.878-2.719-1.605-4.642-2.181c-1.936-0.585-4.188-1.062-6.754-1.407c-2.572-0.354-5.203-0.819-7.888-1.399
			c-2.571-0.474-5.589-1.028-9.035-1.675c-3.445-0.636-6.981-1.578-10.604-2.803c-3.62-1.233-7.224-2.777-10.786-4.639
			c-3.565-1.875-6.752-4.272-9.555-7.198c-2.808-2.918-5.054-6.401-6.749-10.432c-1.697-4.038-2.552-8.792-2.552-14.288
			c0-8.059,1.58-14.73,4.73-19.994c3.162-5.262,7.166-9.439,12.023-12.536c4.842-3.096,10.257-5.262,16.213-6.49
			c5.966-1.233,11.75-1.837,17.363-1.837c9.817,0,18.611,1.433,26.395,4.298c7.765,2.855,15.226,7.038,22.348,12.529
			c0.945,0.825,1.465,1.817,1.582,2.984c0.12,1.166-0.173,2.227-0.871,3.159l-13.684,19.468c-0.698,0.93-1.632,1.507-2.802,1.749
			c-1.168,0.242-2.222,0-3.163-0.696c-5.957-3.737-11.512-6.406-16.648-7.984c-5.146-1.586-9.884-2.371-14.204-2.371
			c-1.291,0-2.781,0.035-4.479,0.096c-1.689,0.05-3.302,0.284-4.815,0.689c-1.524,0.414-2.784,1.089-3.768,2.028
			c-1.001,0.931-1.495,2.218-1.495,3.857c0,1.639,1.222,3.097,3.681,4.381c2.456,1.286,5.261,2.399,8.424,3.333
			c3.148,0.94,6.188,1.664,9.116,2.189c2.917,0.521,4.796,0.854,5.607,0.969c4.205,0.818,8.823,2.02,13.855,3.587
			c5.024,1.579,9.729,3.924,14.111,7.023c4.381,3.099,8.065,7.119,11.051,12.089c2.975,4.972,4.47,11.202,4.47,18.68
			c0,7.006-1.225,13.055-3.688,18.155c-2.456,5.075-5.866,9.261-10.257,12.539c-4.379,3.269-9.635,5.692-15.784,7.263
			c-6.13,1.589-12.942,2.375-20.425,2.375c-6.077,0-11.743-0.502-17.012-1.495c-5.254-0.985-10.164-2.372-14.723-4.113
			c-4.561-1.76-8.801-3.835-12.714-6.23c-3.917-2.39-7.511-4.938-10.781-7.635c-0.943-0.694-1.468-1.658-1.58-2.885
			c-0.12-1.234,0.175-2.311,0.874-3.245l13.505-19.464c0.699-0.934,1.631-1.521,2.801-1.752
			C273.167,218.559,274.226,218.745,275.158,219.323z"/>
		<path fill="#FFFFFF" d="M460.333,167.241h-24.557c-1.173,0-2.163,0.414-2.975,1.224c-0.824,0.82-1.233,1.819-1.233,2.978v87.682
			c0,1.172-0.378,2.167-1.135,2.986c-0.768,0.811-1.791,1.216-3.071,1.216h-26.301c-1.172,0-2.168-0.407-2.984-1.216
			c-0.815-0.819-1.225-1.814-1.225-2.986v-87.682c0-1.157-0.383-2.156-1.145-2.978c-0.755-0.812-1.783-1.224-3.064-1.224h-24.901
			c-1.167,0-2.163-0.405-2.982-1.215c-0.819-0.828-1.229-1.832-1.229-2.995V139.19c0-1.172,0.407-2.166,1.229-2.986
			c0.819-0.812,1.812-1.224,2.982-1.224h92.59c1.275,0,2.304,0.413,3.065,1.224c0.753,0.82,1.142,1.813,1.142,2.986v23.839
			c0,1.163-0.388,2.167-1.142,2.995C462.637,166.836,461.608,167.241,460.333,167.241z"/>
		<path fill="#FFFFFF" d="M502.237,139.009c0.472-1.045,1.265-1.957,2.368-2.715c1.114-0.753,2.308-1.143,3.601-1.143h24.543
			c1.17,0,2.31,0.39,3.42,1.143c1.108,0.757,1.899,1.67,2.372,2.715l51.197,119.239c0.467,1.054,0.38,2.155-0.265,3.327
			c-0.645,1.185-1.896,1.754-3.767,1.754h-29.99c-1.284,0-2.49-0.374-3.594-1.133c-1.112-0.76-1.96-1.675-2.539-2.728l-4.737-10.517
			c-0.585-1.043-1.437-1.952-2.546-2.719c-1.104-0.752-2.25-1.134-3.416-1.134h-37.006c-1.28,0-2.483,0.381-3.585,1.134
			c-1.116,0.766-1.91,1.674-2.371,2.719l-4.912,10.517c-0.468,1.053-1.261,1.968-2.367,2.728c-1.114,0.757-2.251,1.133-3.422,1.133
			h-30.156c-0.586,0-1.195-0.104-1.844-0.346c-0.637-0.225-1.165-0.587-1.571-1.053c-0.416-0.458-0.673-1.053-0.792-1.753
			c-0.117-0.708,0.062-1.519,0.529-2.451L502.237,139.009z M512.586,215.293h15.607c1.168,0,2.012-0.378,2.539-1.141
			c0.531-0.768,0.498-1.672-0.085-2.717c-1.169-2.936-2.568-6.342-4.207-10.268c-1.641-3.918-3.153-7.567-4.56-10.95
			c-0.469-1.053-0.996-1.589-1.577-1.589c-0.588,0-1.115,0.537-1.58,1.589l-8.764,21.217c-0.473,1.044-0.473,1.948,0,2.717
			C510.425,214.916,511.293,215.293,512.586,215.293z"/>
		<path fill="#FFFFFF" d="M625.836,263.331h-26.255c-1.175,0-2.175-0.407-2.999-1.216c-0.821-0.82-1.229-1.814-1.229-2.987V139.19
			c0-1.172,0.401-2.166,1.224-2.986c0.817-0.812,1.812-1.224,2.984-1.224h54.53c6.785,0,13.035,1.139,18.765,3.418
			c5.729,2.276,10.613,5.46,14.641,9.56c4.039,4.09,7.188,8.94,9.465,14.555c2.279,5.609,3.426,11.803,3.426,18.585
			c0,3.738-0.434,7.457-1.314,11.142c-0.872,3.674-2.142,7.151-3.77,10.424c-1.64,3.269-3.569,6.221-5.784,8.85
			c-2.229,2.641-4.739,4.822-7.543,6.576c-0.939,0.707-1.554,1.551-1.844,2.542c-0.291,1.004-0.091,1.96,0.609,2.891
			c4.442,5.862,9.126,11.876,14.031,18.064c4.913,6.2,9.288,11.872,13.152,17.013c0.706,0.951,0.878,1.961,0.525,3.072
			c-0.354,1.105-1.109,1.66-2.286,1.66h-32.61c-1.159,0-2.431-0.32-3.767-0.959c-1.356-0.637-2.375-1.43-3.069-2.362
			c-3.729-4.911-7.42-9.877-11.087-14.906c-3.665-5.025-7.307-10.109-10.911-15.261c-0.69-0.939-1.688-1.725-2.957-2.361
			c-1.276-0.642-2.512-0.966-3.663-0.966h-3.838c-1.163,0-2.162,0.412-2.974,1.223c-0.814,0.82-1.222,1.82-1.222,2.986v28.403
			c0,1.173-0.418,2.167-1.242,2.987C628.018,262.922,627.019,263.331,625.836,263.331z M634.257,194.25h18.502
			c1.396,0,2.847-0.268,4.359-0.795c1.509-0.526,2.9-1.347,4.187-2.459c1.276-1.102,2.321-2.475,3.141-4.114
			c0.813-1.64,1.227-3.564,1.227-5.784c0-1.172-0.202-2.554-0.62-4.122c-0.402-1.578-1.106-3.09-2.09-4.565
			c-0.987-1.458-2.328-2.692-4.011-3.677c-1.69-1-3.749-1.49-6.193-1.49h-18.501c-1.157,0-2.154,0.414-2.966,1.225
			c-0.815,0.819-1.221,1.818-1.221,2.977v18.595c0,1.172,0.405,2.154,1.221,2.978C632.103,193.834,633.103,194.25,634.257,194.25z"
			/>
		<path fill="#FFFFFF" d="M805.426,167.241H780.87c-1.176,0-2.166,0.414-2.979,1.224c-0.822,0.82-1.236,1.819-1.236,2.978v87.682
			c0,1.172-0.369,2.167-1.127,2.986c-0.774,0.811-1.793,1.216-3.075,1.216h-26.299c-1.173,0-2.17-0.407-2.975-1.216
			c-0.828-0.819-1.24-1.814-1.24-2.986v-87.682c0-1.157-0.378-2.156-1.136-2.978c-0.761-0.812-1.79-1.224-3.067-1.224H712.84
			c-1.178,0-2.164-0.405-2.981-1.215c-0.823-0.828-1.236-1.832-1.236-2.995V139.19c0-1.172,0.413-2.166,1.236-2.986
			c0.817-0.812,1.805-1.224,2.981-1.224h92.586c1.285,0,2.295,0.413,3.07,1.224c0.749,0.82,1.131,1.813,1.131,2.986v23.839
			c0,1.163-0.382,2.167-1.131,2.995C807.721,166.836,806.711,167.241,805.426,167.241z"/>
	</g>
	<g>
		<path fill="#FFFFFF" d="M626.999,494.75h-40.91c-1.979,0-3.557-0.629-4.732-1.904c-1.176-1.257-1.761-2.812-1.761-4.626V302.284
			c0-1.81,0.585-3.355,1.761-4.632c1.177-1.261,2.755-1.89,4.732-1.89h40.91c1.804,0,3.34,0.629,4.603,1.89
			c1.268,1.277,1.899,2.823,1.899,4.632v185.935c0,1.812-0.633,3.369-1.899,4.626C630.339,494.121,628.802,494.75,626.999,494.75z"
			/>
		<path fill="#FFFFFF" d="M803.105,345.567h-38.122c-1.813,0-3.361,0.646-4.625,1.905c-1.276,1.279-1.915,2.814-1.915,4.633v136.113
			c0,1.812-0.589,3.369-1.762,4.626c-1.173,1.275-2.772,1.904-4.763,1.904h-40.838c-1.817,0-3.362-0.629-4.626-1.904
			c-1.27-1.257-1.902-2.812-1.902-4.626V352.105c0-1.816-0.599-3.355-1.771-4.633c-1.18-1.26-2.77-1.905-4.764-1.905h-38.657
			c-1.817,0-3.363-0.623-4.629-1.911c-1.27-1.247-1.908-2.811-1.908-4.613v-37.025c0-1.82,0.64-3.356,1.908-4.632
			c1.268-1.259,2.812-1.899,4.629-1.899h143.744c1.991,0,3.571,0.641,4.756,1.899c1.173,1.278,1.767,2.812,1.767,4.632v37.025
			c0,1.803-0.594,3.366-1.767,4.613C806.677,344.944,805.093,345.567,803.105,345.567z"/>
	</g>
	<g>
		<g>
			<path fill="#F8D80E" d="M920.285,371.442h-55.203c-3.65,0-6.644-1.153-8.945-3.485c-2.331-2.312-3.661-5.135-3.987-8.449
				l-12.436-214.344c-0.328-3.649,0.576-6.56,2.733-8.706c2.153-2.148,5.05-3.229,8.706-3.229h83.052
				c3.312,0,6.049,1.081,8.209,3.229c2.14,2.146,3.062,5.057,2.729,8.706l-12.43,214.344c-0.332,3.314-1.667,6.138-3.979,8.449
				C926.414,370.289,923.596,371.442,920.285,371.442z"/>
			<path fill="#F8D80E" d="M930.235,496.772h-74.611c-3.649,0-6.539-1.155-8.695-3.479c-2.164-2.322-3.236-5.143-3.236-8.455v-68.64
				c0-3.644,1.072-6.539,3.236-8.707c2.156-2.141,5.046-3.22,8.695-3.22h74.61c3.307,0,6.132,1.079,8.45,3.22
				c2.318,2.168,3.48,5.063,3.48,8.707v68.64c0,3.312-1.162,6.133-3.48,8.455C936.365,495.614,933.541,496.772,930.235,496.772z"/>
		</g>
	</g>
	<path fill="#F8D80E" d="M538.969,313.434c-0.011-12.305-8.46-19.226-23.408-19.24c-39.745-0.046-79.494-0.019-119.235-0.019
		c-39.376,0-78.756-0.028-118.133,0.019c-14.8,0.014-23.345,7.023-23.366,19.282c-0.042,54.041-0.042,108.089,0,162.134
		c0.021,12.236,8.674,19.261,23.429,19.261h237.367c14.788,0,23.336-6.97,23.347-19.31
		C539.028,421.512,539.028,367.476,538.969,313.434z M453.099,405c-25.582,15.039-51.229,29.975-76.935,44.805
		c-8.811,5.068-15.104,1.486-15.201-8.592c-0.131-15.265-0.027-30.537-0.027-45.818c0-14.829-0.104-29.697,0.045-44.531
		c0.087-9.758,6.329-13.469,14.763-8.619c25.904,14.938,51.73,29.967,77.472,45.168C461.911,392.549,461.833,399.875,453.099,405z"
		/>
</g>
</svg>
