<?xml version="1.0" encoding="UTF-8" standalone="no"?>
<!-- Generator: Adobe Illustrator 21.0.2, SVG Export Plug-In . SVG Version: 6.00 Build 0)  -->

<svg
   xmlns:dc="http://purl.org/dc/elements/1.1/"
   xmlns:cc="http://creativecommons.org/ns#"
   xmlns:rdf="http://www.w3.org/1999/02/22-rdf-syntax-ns#"
   xmlns:svg="http://www.w3.org/2000/svg"
   xmlns="http://www.w3.org/2000/svg"
   xmlns:sodipodi="http://sodipodi.sourceforge.net/DTD/sodipodi-0.dtd"
   xmlns:inkscape="http://www.inkscape.org/namespaces/inkscape"
   version="1.1"
   id="Layer_1"
   x="0px"
   y="0px"
   viewBox="0 0 353.79999 266.10001"
   xml:space="preserve"
   sodipodi:docname="clock.svg"
   inkscape:export-filename="/home/leandro/Downloads/Arquivos para desenvolvimento/Interface/Sismema_Impulse_Bilingue_Site.svg.png"
   inkscape:export-xdpi="96"
   inkscape:export-ydpi="96"
   width="353.79999"
   height="266.10001"
   inkscape:version="0.92.2 (5c3e80d, 2017-08-06)"><metadata
     id="metadata1476"><rdf:RDF><cc:Work
         rdf:about=""><dc:format>image/svg+xml</dc:format><dc:type
           rdf:resource="http://purl.org/dc/dcmitype/StillImage" /><dc:title></dc:title></cc:Work></rdf:RDF></metadata><defs
     id="defs1474" /><sodipodi:namedview
     pagecolor="#ffffff"
     bordercolor="#666666"
     borderopacity="1"
     objecttolerance="10"
     gridtolerance="10"
     guidetolerance="10"
     inkscape:pageopacity="0"
     inkscape:pageshadow="2"
     inkscape:window-width="1299"
     inkscape:window-height="713"
     id="namedview1472"
     showgrid="false"
     inkscape:zoom="0.90509668"
     inkscape:cx="363.71568"
     inkscape:cy="75.319159"
     inkscape:window-x="67"
     inkscape:window-y="27"
     inkscape:window-maximized="1"
     inkscape:current-layer="Layer_1" /><style
     type="text/css"
     id="style2">
	.st0{fill:#CF2927;}
	.st1{fill:#B1211E;}
	.st2{fill:#FFFFFF;}
	.st3{opacity:0.8;fill:url(#SVGID_3_);}
	.st4{fill:#5A5B5D;}
	.st5{fill:#5A5B5D;stroke:#5A5B5D;stroke-width:0.4685;stroke-miterlimit:10;}
	.st6{fill:#A6A8AB;}
	.st7{fill:#F1F1F2;}
	.st8{fill:none;stroke:#FFFFFF;stroke-width:0.25;stroke-miterlimit:10;}
	.st9{font-family:'Exo-Bold';}
	.st10{font-size:46.2986px;}
	.st11{font-family:'Exo-Regular';}
	.st12{font-size:30.4149px;}
	.st13{fill:#E6E6E6;}
	.st14{font-size:18px;}
	.st15{font-family:'Exo-Light';}
	.st16{fill:none;stroke:#E6E6E6;stroke-width:2;stroke-miterlimit:10;}
	.st17{fill:#9A9C9F;}
	.st18{font-size:21.5429px;}
	.st19{fill:none;}
	.st20{fill:#808080;}
	.st21{font-size:16px;}
	.st22{opacity:0.25;fill:url(#SVGID_4_);}
	.st23{opacity:0.25;fill:url(#SVGID_5_);}
	.st24{opacity:0.67;fill:#F2F2F2;}
	.st25{font-size:13.605px;}
	.st26{letter-spacing:2;}
	.st27{fill:#F2F2F2;}
	.st28{fill:none;stroke:#CF2927;stroke-miterlimit:10;}
	.st29{fill:none;stroke:#CCCCCC;stroke-miterlimit:10;}
	.st30{font-family:'Exo-Italic';}
	.st31{font-size:10.5162px;}
	.st32{font-size:14px;}
	.st33{font-size:12px;}
	.st34{opacity:0.6;}
	.st35{font-size:10px;}
	.st36{font-family:'Exo-Black';}
	.st37{font-size:11px;}
	.st38{font-family:'Exo-DemiBold';}
	.st39{fill:#58595B;}
	.st40{font-family:'Exo-ExtraBold';}
	.st41{font-size:20.3014px;}
	.st42{fill-rule:evenodd;clip-rule:evenodd;fill:#FFFFFF;}
	.st43{font-family:'Exo-Medium';}
	.st44{font-size:15.3767px;}
	.st45{font-size:18.8593px;}
	.st46{letter-spacing:-1;}
	.st47{fill:#0071BC;}
	.st48{fill:none;stroke:#FFFFFF;stroke-miterlimit:10;}
	.st49{fill:#B3B3B3;}
	.st50{font-family:'Exo-Light-Italic';}
	.st51{letter-spacing:1;}
	.st52{font-size:18.5221px;}
	.st53{font-size:14.591px;}
	.st54{fill:#C32C27;}
	.st55{fill:#A8241E;}
	.st56{fill:#A5A6A9;}
	.st57{fill:#F0F0F1;}
	.st58{fill:#F3F5F5;}
	.st59{font-size:21.74px;}
	.st60{font-size:18.6343px;}
	.st61{fill:#CF2927;stroke:#CF2927;stroke-width:2.8381;stroke-miterlimit:10;}
	.st62{fill:none;stroke:#CF2927;stroke-width:5.1142;stroke-linecap:round;stroke-linejoin:round;stroke-miterlimit:10;}
	.st63{clip-path:url(#SVGID_9_);}
</style><linearGradient
     id="SVGID_3_"
     gradientUnits="userSpaceOnUse"
     x1="-0.61860001"
     y1="524.10907"
     x2="1920.5669"
     y2="524.10907"><stop
       offset="0"
       style="stop-color:#58595B"
       id="stop28" /><stop
       offset="0.5117"
       style="stop-color:#757677"
       id="stop30" /><stop
       offset="1"
       style="stop-color:#555658"
       id="stop32" /></linearGradient><linearGradient
     id="SVGID_4_"
     gradientUnits="userSpaceOnUse"
     x1="1152.7441"
     y1="1409.5017"
     x2="1152.7441"
     y2="1545.3948"><stop
       offset="0"
       style="stop-color:#FFFFFF;stop-opacity:0"
       id="stop142" /><stop
       offset="3.624004e-02"
       style="stop-color:#F4F4F4;stop-opacity:3.624004e-02"
       id="stop144" /><stop
       offset="0.3988"
       style="stop-color:#8D8D8D;stop-opacity:0.3988"
       id="stop146" /><stop
       offset="0.6904"
       style="stop-color:#414141;stop-opacity:0.6904"
       id="stop148" /><stop
       offset="0.8971"
       style="stop-color:#121212;stop-opacity:0.8971"
       id="stop150" /><stop
       offset="1"
       style="stop-color:#000000"
       id="stop152" /></linearGradient><linearGradient
     id="SVGID_5_"
     gradientUnits="userSpaceOnUse"
     x1="1186.2559"
     y1="1896.8486"
     x2="1186.2559"
     y2="2032.7417"
     gradientTransform="rotate(180,1169.5,1591)"><stop
       offset="0"
       style="stop-color:#FFFFFF;stop-opacity:0"
       id="stop157" /><stop
       offset="3.624004e-02"
       style="stop-color:#F4F4F4;stop-opacity:3.624004e-02"
       id="stop159" /><stop
       offset="0.3988"
       style="stop-color:#8D8D8D;stop-opacity:0.3988"
       id="stop161" /><stop
       offset="0.6904"
       style="stop-color:#414141;stop-opacity:0.6904"
       id="stop163" /><stop
       offset="0.8971"
       style="stop-color:#121212;stop-opacity:0.8971"
       id="stop165" /><stop
       offset="1"
       style="stop-color:#000000"
       id="stop167" /></linearGradient><g
     transform="translate(-514.6,-5090.4)"
     id="g6"><path
       inkscape:connector-curvature="0"
       class="st0"
       d="M 641.4,5090.4 H 548 c -23.9,0 -33,17 -33.4,33.1 v 70.6 c 0,19.1 11.1,30.2 14.6,33.2 l 52.1,43.4 c 1.6,1.6 7.3,5.4 14.4,5.4 3.6,0 7.6,-1 11.6,-3.8 l 3.6,-2.9 46.2,-38.5 c 17.7,-14.8 18.8,-34.2 18.9,-37.9 v -68.1 c -0.1,-26.5 -22.6,-34.1 -34.6,-34.5 z"
       id="path4"
       style="fill:#cf2927" /></g><path
     inkscape:connector-curvature="0"
     class="st1"
     d="m 104.7,51.900042 c -0.9,-1.4 -11.000004,-14.1 -12.200004,-15.1 4.5,-4 8.100004,-1.8 10.200004,0.4 0.2,0.2 0.3,0.3 0.5,0.5 0.2,0.2 0.3,0.3 0.5,0.5 0.2,0.2 0.3,0.3 0.5,0.5 0.2,0.2 0.3,0.3 0.5,0.5 0.2,0.2 0.3,0.3 0.5,0.5 0.2,0.2 0.3,0.3 0.5,0.5 0.2,0.2 0.3,0.3 0.5,0.5 0.2,0.2 0.3,0.3 0.5,0.5 0.2,0.2 0.3,0.3 0.5,0.5 0.2,0.2 0.3,0.3 0.5,0.5 0.2,0.2 0.3,0.3 0.5,0.5 0.2,0.2 0.3,0.3 0.5,0.5 0.2,0.2 0.3,0.3 0.5,0.5 0.2,0.2 0.3,0.3 0.5,0.5 0.2,0.2 0.3,0.3 0.5,0.5 0.2,0.2 0.3,0.3 0.5,0.5 0.2,0.2 0.3,0.3 0.5,0.5 0.2,0.2 0.3,0.3 0.5,0.5 0.2,0.2 0.3,0.3 0.5,0.5 0.2,0.2 0.3,0.3 0.5,0.5 0.2,0.2 0.3,0.3 0.5,0.5 0.2,0.2 0.3,0.3 0.5,0.5 0.2,0.2 0.3,0.3 0.5,0.5 0.2,0.2 0.3,0.3 0.5,0.5 0.2,0.2 0.3,0.3 0.5,0.5 0.2,0.2 0.3,0.3 0.5,0.5 0.2,0.2 0.3,0.3 0.5,0.5 0.2,0.2 0.3,0.3 0.5,0.5 0.2,0.2 0.3,0.3 0.5,0.5 0.2,0.2 0.3,0.3 0.5,0.5 0.2,0.2 0.3,0.3 0.5,0.5 0.2,0.2 0.3,0.3 0.5,0.5 0.2,0.2 0.3,0.3 0.5,0.5 0.2,0.2 0.3,0.3 0.5,0.5 0.2,0.2 0.3,0.3 0.5,0.5 0.2,0.2 0.3,0.3 0.5,0.5 0.2,0.2 0.3,0.3 0.5,0.5 0.2,0.2 0.3,0.3 0.5,0.5 0.2,0.2 0.3,0.3 0.5,0.5 0.2,0.2 0.3,0.3 0.5,0.5 0.2,0.2 0.3,0.3 0.5,0.5 0.2,0.2 0.3,0.3 0.5,0.5 0.2,0.2 0.3,0.3 0.5,0.5 0.2,0.2 0.3,0.3 0.5,0.5 0.2,0.2 0.3,0.3 0.5,0.5 0.2,0.2 0.3,0.3 0.5,0.5 0.2,0.2 0.3,0.3 0.5,0.5 0.2,0.2 0.3,0.3 0.5,0.5 0.2,0.2 0.3,0.3 0.5,0.5 0.2,0.2 0.3,0.3 0.5,0.5 0.2,0.2 0.3,0.3 0.5,0.5 0.2,0.2 0.3,0.3 0.5,0.5 0.2,0.2 0.3,0.3 0.5,0.5 0.2,0.2 0.3,0.3 0.5,0.5 0.2,0.2 0.3,0.3 0.5,0.5 0.2,0.2 0.3,0.3 0.5,0.5 0.2,0.2 0.3,0.3 0.5,0.5 0.2,0.2 0.3,0.3 0.5,0.5 0.2,0.2 0.3,0.3 0.5,0.5 0.2,0.2 0.3,0.3 0.5,0.5 0.2,0.2 0.3,0.3 0.5,0.5 0.2,0.2 0.3,0.3 0.5,0.5 0.2,0.2 0.3,0.3 0.5,0.5 0.2,0.2 0.3,0.3 0.5,0.5 0.2,0.2 0.3,0.3 0.5,0.5 0.2,0.2 0.3,0.3 0.5,0.5 0.2,0.2 0.3,0.3 0.5,0.5 0.2,0.2 0.3,0.3 0.5,0.5 0.2,0.2 0.3,0.3 0.5,0.5 0.2,0.2 0.3,0.3 0.5,0.5 0.2,0.2 0.3,0.3 0.5,0.5 0.2,0.2 0.3,0.3 0.5,0.5 0.2,0.2 0.3,0.3 0.5,0.5 0.2,0.2 0.3,0.3 0.5,0.5 0.2,0.2 0.3,0.3 0.5,0.5 0.2,0.2 0.3,0.3 0.5,0.5 0.2,0.2 0.3,0.3 0.5,0.5 0.2,0.2 0.3,0.3 0.5,0.5 0.2,0.2 0.3,0.3 0.5,0.5 0.2,0.2 0.3,0.3 0.5,0.5 0.2,0.2 0.3,0.3 0.5,0.5 0.2,0.2 0.3,0.3 0.5,0.5 0.2,0.2 0.3,0.3 0.5,0.5 0.2,0.2 0.3,0.3 0.5,0.5 0.2,0.2 0.3,0.3 0.5,0.5 0.2,0.2 0.3,0.3 0.5,0.5 0.2,0.2 0.3,0.3 0.5,0.5 0.2,0.2 0.3,0.3 0.5,0.5 0.2,0.2 0.3,0.3 0.5,0.5 0.2,0.2 0.3,0.3 0.5,0.5 0.2,0.2 0.3,0.3 0.5,0.5 0.2,0.2 0.3,0.3 0.5,0.5 0.2,0.2 0.3,0.3 0.5,0.5 0.2,0.2 0.3,0.3 0.5,0.5 0.2,0.2 0.3,0.3 0.5,0.5 0.2,0.2 0.3,0.3 0.5,0.5 -0.9,5.1 -5.9,55.999998 -14.1,62.699998 l -28.4,23.7 -37.100004,-36.7 13.5,-15.3 -12.1,-11.6 h 14.2 l -7.1,-12.299998 z"
     id="path8"
     style="fill:#b1211e" /><g
     transform="translate(-514.6,-5090.4)"
     id="g12"><path
       inkscape:connector-curvature="0"
       class="st2"
       d="m 585.4,5197 v -9.1 c 0,-2.7 0.2,-4.9 0.6,-6.7 0.4,-1.8 1,-3.4 1.8,-4.8 0.8,-1.4 1.9,-2.8 3.2,-4.2 1.3,-1.3 3,-2.9 5,-4.8 1.6,-1.5 3.2,-3 4.7,-4.5 1.6,-1.5 3,-3.1 4.3,-4.7 1.3,-1.6 2.3,-3.4 3.2,-5.2 0.8,-1.8 1.3,-3.9 1.3,-6.2 0,-2.3 -0.4,-4.4 -1.3,-6.3 -0.8,-1.9 -2,-3.6 -3.3,-5 -1.4,-1.4 -3,-2.5 -5,-3.3 -1.9,-0.8 -4,-1.2 -6.2,-1.2 -4.8,0 -8.8,1.5 -11.8,4.6 -3,3.1 -4.8,7.1 -5.4,12 l -15.1,-1.5 c 1.3,-8.6 4.9,-15.4 10.8,-20.3 5.9,-4.9 13.2,-7.3 21.9,-7.3 4.2,0 8,0.6 11.6,1.9 3.6,1.2 6.8,3 9.4,5.3 2.7,2.3 4.8,5.2 6.3,8.6 1.5,3.4 2.3,7.3 2.3,11.6 0,3.8 -0.5,7 -1.6,9.9 -1.1,2.8 -2.6,5.5 -4.6,7.9 l -8.9,9.2 -1.5,1.3 c -1.6,1.5 -2.8,2.7 -3.8,3.8 -0.9,1 -1.7,2.1 -2.2,3.3 -0.5,1.1 -0.9,2.4 -1.1,3.8 -0.2,1.4 -0.3,3.1 -0.3,5.2 v 6.5 h -14.3 z m -2.8,20.5 c 0,-2.7 1,-5 2.9,-6.9 1.9,-1.9 4.2,-2.9 6.9,-2.9 2.7,0 5,1 6.9,2.9 1.9,1.9 2.9,4.2 2.9,6.9 0,2.7 -1,5 -2.9,6.9 -1.9,1.9 -4.2,2.9 -6.9,2.9 -2.7,0 -5,-1 -6.9,-2.9 -1.9,-1.9 -2.9,-4.2 -2.9,-6.9 z"
       id="path10"
       style="fill:#ffffff" /></g><path
     inkscape:connector-curvature="0"
     class="st2"
     d="m 235.3,41.000042 c 28.5,0 55.3,11.1 75.4,31.2 20.1,20.1 31.2,46.899998 31.2,75.399998 0,28.5 -11.1,55.3 -31.2,75.4 -20.1,20.1 -46.9,31.2 -75.4,31.2 -28.5,0 -55.3,-11.1 -75.4,-31.2 -20.1,-20.1 -31.2,-46.9 -31.2,-75.4 0,-28.5 11.1,-55.299998 31.2,-75.399998 20.1,-20.1 46.9,-31.2 75.4,-31.2 z"
     id="path14"
     style="fill:#ffffff" /><g
     transform="translate(-514.6,-5090.4)"
     id="g1094"><g
       id="g972"><g
         id="g970"><path
           inkscape:connector-curvature="0"
           class="st58"
           d="m 749.9,5129.2 c 60.1,0 108.9,48.7 108.9,108.9 0,60.1 -48.7,108.9 -108.9,108.9"
           id="path968"
           style="fill:#f3f5f5" /></g></g><g
       id="g980"><g
         id="g978"><g
           id="g976"><path
             inkscape:connector-curvature="0"
             class="st17"
             d="m 749.9,5131.4 c 28.5,0 55.3,11.1 75.4,31.2 20.1,20.1 31.2,46.9 31.2,75.4 0,28.5 -11.1,55.3 -31.2,75.4 -20.1,20.1 -46.9,31.2 -75.4,31.2 -28.5,0 -55.3,-11.1 -75.4,-31.2 -20.1,-20.1 -31.2,-46.9 -31.2,-75.4 0,-28.5 11.1,-55.3 31.2,-75.4 20.1,-20.1 46.9,-31.2 75.4,-31.2 z m 0,-11.8 c -65.4,0 -118.4,53 -118.4,118.5 0,65.4 53,118.4 118.4,118.4 65.4,0 118.5,-53 118.5,-118.4 -0.1,-65.5 -53.1,-118.5 -118.5,-118.5 z"
             id="path974"
             style="fill:#9a9c9f" /></g></g></g><g
       id="g988"><g
         id="g986"><g
           id="g984"><rect
             x="735"
             y="5144.7002"
             transform="matrix(0.9679,-0.2514,0.2514,0.9679,-1281.5792,352.265)"
             class="st39"
             width="5.9000001"
             height="94.800003"
             id="rect982"
             style="fill:#58595b" /></g></g></g><g
       id="g994"><g
         id="g992"><rect
           x="784.29999"
           y="5184.1001"
           transform="matrix(0.1508,-0.9886,0.9886,0.1508,-4516.6963,5228.7905)"
           class="st0"
           width="1.5"
           height="118.5"
           id="rect990"
           style="fill:#cf2927" /></g></g><g
       id="g1002"><g
         id="g1000"><g
           id="g998"><polygon
             class="st39"
             points="753.6,5235.6 751.7,5240.4 685.7,5200 688.9,5195.1 "
             id="polygon996"
             style="fill:#58595b" /></g></g></g><g
       id="g1084"><g
         id="g1010"><g
           id="g1008"><g
             id="g1006"><circle
               class="st0"
               cx="831.09998"
               cy="5238"
               r="5.0999999"
               id="circle1004"
               style="fill:#cf2927" /></g></g></g><g
         id="g1018"><g
           id="g1016"><g
             id="g1014"><circle
               class="st0"
               cx="668.70001"
               cy="5238"
               r="5.0999999"
               id="circle1012"
               style="fill:#cf2927" /></g></g></g><g
         id="g1026"><g
           id="g1024"><g
             id="g1022"><circle
               class="st0"
               cx="750.09998"
               cy="5156.7002"
               r="5.0999999"
               id="circle1020"
               style="fill:#cf2927" /></g></g></g><g
         id="g1034"><g
           id="g1032"><g
             id="g1030"><circle
               r="5.0999999"
               class="st0"
               cx="750.09998"
               cy="5319.3999"
               id="ellipse1028"
               style="fill:#cf2927" /></g></g></g><g
         id="g1040"><g
           id="g1038"><circle
             r="2.5"
             transform="matrix(0.5,-0.866,0.866,0.5,-4161.2729,3349.5713)"
             class="st17"
             cx="820.20001"
             cy="5278.6001"
             id="ellipse1036"
             style="fill:#9a9c9f" /></g></g><g
         id="g1046"><g
           id="g1044"><circle
             r="2.5"
             transform="matrix(0.4996,-0.8663,0.8663,0.4996,-4162.2119,3189.4436)"
             class="st17"
             cx="679.59998"
             cy="5197.3999"
             id="ellipse1042"
             style="fill:#9a9c9f" /></g></g><g
         id="g1052"><g
           id="g1050"><circle
             r="2.5"
             transform="matrix(0.4997,-0.8662,0.8662,0.4997,-4080.6313,3270.2795)"
             class="st17"
             cx="790.70001"
             cy="5167.7002"
             id="ellipse1048"
             style="fill:#9a9c9f" /></g></g><g
         id="g1058"><g
           id="g1056"><circle
             r="2.5"
             transform="matrix(0.5,-0.866,0.866,0.5,-4242.6011,3268.5051)"
             class="st17"
             cx="709.40002"
             cy="5308.5"
             id="ellipse1054"
             style="fill:#9a9c9f" /></g></g><g
         id="g1064"><g
           id="g1062"><circle
             r="2.5"
             transform="matrix(0.866,-0.5,0.5,0.866,-2548.448,1106.6057)"
             class="st17"
             cx="790.59998"
             cy="5308.3999"
             id="ellipse1060"
             style="fill:#9a9c9f" /></g></g><g
         id="g1070"><g
           id="g1068"><circle
             r="2.5"
             transform="matrix(0.8662,-0.4997,0.4997,0.8662,-2487.1719,1045.7375)"
             class="st17"
             cx="709.40002"
             cy="5167.7002"
             id="ellipse1066"
             style="fill:#9a9c9f" /></g></g><g
         id="g1076"><g
           id="g1074"><path
             inkscape:connector-curvature="0"
             class="st17"
             d="m 821.7,5199.7 c -1.2,0.7 -2.8,0.3 -3.5,-0.9 -0.7,-1.2 -0.3,-2.8 0.9,-3.5 1.2,-0.7 2.8,-0.3 3.5,0.9 0.8,1.2 0.3,2.8 -0.9,3.5 z"
             id="path1072"
             style="fill:#9a9c9f" /></g></g><g
         id="g1082"><g
           id="g1080"><path
             inkscape:connector-curvature="0"
             class="st17"
             d="m 680.9,5281 c -1.2,0.7 -2.8,0.3 -3.5,-0.9 -0.7,-1.2 -0.3,-2.8 0.9,-3.5 1.2,-0.7 2.8,-0.3 3.5,0.9 0.7,1.3 0.3,2.8 -0.9,3.5 z"
             id="path1078"
             style="fill:#9a9c9f" /></g></g></g><g
       id="g1092"><g
         id="g1090"><g
           id="g1088"><circle
             class="st39"
             cx="749.90002"
             cy="5238"
             r="5.9000001"
             id="circle1086"
             style="fill:#58595b" /></g></g></g></g></svg>