<?xml version="1.0" encoding="UTF-8" standalone="no"?>
<!-- Generator: Adobe Illustrator 21.0.2, SVG Export Plug-In . SVG Version: 6.00 Build 0)  -->

<svg
   xmlns:osb="http://www.openswatchbook.org/uri/2009/osb"
   xmlns:dc="http://purl.org/dc/elements/1.1/"
   xmlns:cc="http://creativecommons.org/ns#"
   xmlns:rdf="http://www.w3.org/1999/02/22-rdf-syntax-ns#"
   xmlns:svg="http://www.w3.org/2000/svg"
   xmlns="http://www.w3.org/2000/svg"
   xmlns:sodipodi="http://sodipodi.sourceforge.net/DTD/sodipodi-0.dtd"
   xmlns:inkscape="http://www.inkscape.org/namespaces/inkscape"
   version="1.1"
   id="Camada_1"
   x="0px"
   y="0px"
   viewBox="0 0 329.34134 149.39999"
   xml:space="preserve"
   sodipodi:docname="logo-black.svg"
   width="329.34134"
   height="149.39999"
   inkscape:version="0.92.2 (5c3e80d, 2017-08-06)"><metadata
     id="metadata107"><rdf:RDF><cc:Work
         rdf:about=""><dc:format>image/svg+xml</dc:format><dc:type
           rdf:resource="http://purl.org/dc/dcmitype/StillImage" /><dc:title /></cc:Work></rdf:RDF></metadata><defs
     id="defs105"><linearGradient
       id="linearGradient1733"
       osb:paint="solid"><stop
         style="stop-color:#000000;stop-opacity:1;"
         offset="0"
         id="stop1731" /></linearGradient></defs><sodipodi:namedview
     pagecolor="#ffffff"
     bordercolor="#666666"
     borderopacity="1"
     objecttolerance="10"
     gridtolerance="10"
     guidetolerance="10"
     inkscape:pageopacity="0"
     inkscape:pageshadow="2"
     inkscape:window-width="1299"
     inkscape:window-height="713"
     id="namedview103"
     showgrid="false"
     inkscape:zoom="0.7125"
     inkscape:cx="90.000273"
     inkscape:cy="-62.013905"
     inkscape:window-x="67"
     inkscape:window-y="27"
     inkscape:window-maximized="1"
     inkscape:current-layer="g14" /><style
     type="text/css"
     id="style2">
	.st0{fill:#3A3A3A;}
	.st1{fill:#9E302C;}
	.st2{fill:#892A23;}
	.st3{fill:#A2A3A6;}
	.st4{fill:#EFEEEF;}
	.st5{fill:#373737;}
	.st6{fill:#A7302C;}
</style><g
     id="g14"
     transform="translate(-83.1,-206.7)"><path
       class="st0"
       d="m 243.8,300.9 c 0.4,-2.4 1.8,-3.3 3.7,-3.2 l 7.8,0.4 -0.2,1.4 h -7.9 c -1.2,0 -1.4,0.7 -1.5,1.4 l -0.8,5 8.2,0.2 -0.2,1.5 -8.2,0.2 -0.8,5 c -0.2,1.3 0.6,1.3 1.4,1.3 h 7.6 l -0.2,1.4 -7.7,0.4 c -1.6,0.1 -3.3,-0.8 -2.9,-3.1 z m 19.5,1.5 c 1.1,0 3.2,0.3 4.7,1 l 1.1,-7.1 h 1.8 l -3.1,19.6 h -1.3 l -0.2,-1.5 c -0.7,0.5 -3.2,1.6 -4.9,1.6 -3.5,0 -4.1,-3.7 -3.6,-6.7 0.6,-3.5 1.7,-6.9 5.5,-6.9 z m -1.8,11.8 c 2,0 3.6,-0.6 5,-1.1 l 1.3,-8.1 c -1.6,-0.4 -2.9,-0.6 -4.8,-0.6 -1.5,0 -2.6,1 -3.3,5 -0.5,3 0.1,4.8 1.8,4.8 z m 13.2,-11.6 h 1.8 l -1.4,9.2 c -0.3,1.9 0.6,2.4 1.9,2.4 2,0 3,-0.5 5.1,-1.4 l 1.6,-10.2 h 1.8 l -2.1,13.2 h -1.3 l -0.3,-1.5 c -1.7,0.9 -3.1,1.8 -5.2,1.8 -2.6,0 -3.8,-1.9 -3.4,-4.2 z m 19.8,-0.1 c 1.3,0 3.9,0.4 5.6,0.7 l -0.2,1.3 c 0,0 -3.4,-0.2 -5.7,-0.2 -1.5,0 -2.4,0.2 -3.3,5 -0.7,3.7 0.1,4.9 1.7,4.9 2.3,0 5.9,-0.3 5.9,-0.3 l -0.2,1.4 c -2.1,0.6 -3.7,0.7 -5.7,0.7 -2.5,0 -4.4,-1.8 -3.5,-6.8 1.1,-6.3 3.1,-6.7 5.4,-6.7 z m 13.9,-0.1 c 1.7,-0.2 5.1,0.3 6.4,1.5 l -1.7,11.9 h -1.3 l -0.3,-1.5 c -0.7,0.5 -2.7,1.7 -4.6,1.7 -2.8,0 -4.8,-1.1 -3.8,-7.1 0.8,-5.4 3.2,-6.3 5.3,-6.5 z m -1.6,11.8 c 1.9,0 3.1,-0.5 4.8,-1.2 l 1.3,-8.4 c -1.5,-0.4 -3.3,-0.6 -4.3,-0.4 -1.6,0.3 -3,0.6 -3.8,5.4 -0.6,3.5 0,4.6 2,4.6 z m 17.1,-11.7 c 1.3,0 3.9,0.4 5.6,0.7 l -0.2,1.3 c 0,0 -3.4,-0.2 -5.7,-0.2 -1.5,0 -2.4,0.2 -3.3,5 -0.7,3.7 0.1,4.9 1.7,4.9 2.3,0 5.9,-0.3 5.9,-0.3 l -0.2,1.4 c -2.1,0.6 -3.7,0.7 -5.7,0.7 -2.5,0 -4.4,-1.8 -3.5,-6.8 1.1,-6.3 3.1,-6.7 5.4,-6.7 z m -3.9,16.8 1.4,-0.4 c 0.7,-0.3 1,-1.1 1.1,-2.1 0.7,0 1.7,0 1.7,0 -0.4,2.5 -1.1,3.4 -3.1,3.4 h -1.3 z m 17.7,-16.9 c 1.7,-0.2 5.1,0.3 6.4,1.5 l -1.7,11.9 h -1.3 l -0.3,-1.5 c -0.7,0.5 -2.7,1.7 -4.6,1.7 -2.8,0 -4.8,-1.1 -3.8,-7.1 0.9,-5.4 3.3,-6.3 5.3,-6.5 z m -1.5,11.8 c 1.9,0 3.1,-0.5 4.8,-1.2 l 1.3,-8.4 c -1.5,-0.4 -3.3,-0.6 -4.3,-0.4 -1.6,0.3 -3,0.6 -3.8,5.4 -0.6,3.5 0,4.6 2,4.6 z m 2.2,-16 c 1.2,0.1 1.8,0.8 2.5,0.8 0.6,0 2.3,-0.7 2.5,-0.8 l 0.4,1 c -1.1,0.7 -2,1.6 -3.1,1.5 -1.4,0 -1.6,-0.9 -2.5,-0.8 -1.1,0 -1.7,0.5 -2.5,0.9 l -0.4,-1 c 1,-0.8 2.1,-1.6 3.1,-1.6 z m 16.2,4.3 c 4.2,0 5.6,2.3 4.8,6.9 -0.8,4.9 -2.2,6.6 -6.6,6.6 -4.3,0 -5.8,-1.8 -5.1,-6.6 0.9,-5.4 2.6,-6.9 6.9,-6.9 z m -1.7,11.7 c 2.6,0 4,-0.3 4.7,-4.7 0.7,-4.3 -0.2,-5.1 -3.2,-5.1 -2.8,0 -4,0.5 -4.8,5.1 -0.7,4.2 0.7,4.7 3.3,4.7 z m -108.5,13.6 h 7 c 3.6,0 4.3,2.7 4,4.8 -0.3,2.5 -1.5,3.6 -3,4 0.7,0.1 2.1,1.6 1.7,4.5 -0.3,2.8 -1.8,5 -5.7,5 h -7 z m 4.4,16.4 c 1.2,0 3,-0.3 3.5,-3.3 0.3,-1.8 -0.3,-3.5 -2.4,-3.5 h -5.2 l -1.1,6.8 z m 1.4,-8.7 c 1.9,0 3,-1 3.4,-3 0.4,-2.4 -0.8,-2.9 -2.4,-2.9 H 246 l -0.9,5.9 z m 9.8,-2.7 h 1.8 l -2.1,13.2 h -1.8 z m 0.2,-3.5 c 0,-0.4 0.3,-0.6 0.7,-0.6 h 1.2 c 0.4,0 0.5,0.3 0.5,0.6 l -0.2,1.3 c 0,0.4 -0.3,0.6 -0.7,0.6 h -1.2 c -0.3,0 -0.5,-0.2 -0.5,-0.6 z m 7.6,-2.8 h 1.8 l -2.3,14.8 c -0.4,2.5 0,2.6 1,2.9 0,0 1.8,0.4 1.9,0.4 L 270,346 h -1.7 c -2.4,0 -3.3,-1.5 -2.8,-4.7 z m 7.6,6.3 h 1.8 l -2.1,13.2 h -1.8 z m 3.5,-4.9 h 2.4 l -3.8,3.3 h -1.7 z m 3.4,4.9 h 1.3 l 0.3,1.5 c 1.7,-0.9 3.2,-1.8 5.2,-1.8 2.6,0 3.8,2 3.4,4.2 L 291,346 h -1.8 l 1.5,-9.2 c 0.2,-1.6 -0.6,-2.4 -1.9,-2.4 -2,0 -3,0.5 -5.1,1.4 L 282,346 h -1.8 z m 12.8,18.2 h 6.4 c 1.2,0 2.2,-0.8 2.5,-2.4 l 0.5,-3.3 c -1.7,0.6 -3.4,0.9 -4.5,0.9 -4,0 -4.4,-3.1 -3.8,-7.1 0.7,-4.2 2.7,-6.5 5.5,-6.5 2.6,0 5.4,0.5 6.6,0.6 l -2.4,15.4 c -0.5,3.1 -2.6,4.4 -4.6,4.2 l -6.3,-0.6 z m 4.9,-6.6 c 1.8,0 2.6,-0.1 4.8,-0.6 l 1.5,-9.3 h -4.5 c -2.7,0 -3.5,3.7 -3.6,4.9 -0.4,1.7 -1,5 1.8,5 z m 13.1,-11.6 h 1.8 l -1.4,9.2 c -0.3,1.9 0.6,2.4 1.9,2.4 2,0 3,-0.5 5.1,-1.4 l 1.6,-10.2 h 1.8 l -2.1,13.2 h -1.3 l -0.3,-1.5 c -1.7,0.9 -3.1,1.8 -5.2,1.8 -2.6,0 -3.8,-1.9 -3.4,-4.2 z m 20.9,-0.2 c 3.1,0 5.1,0.9 4.8,3.8 -0.7,5.5 -8.8,4.4 -9.7,4 -0.5,3.1 -0.1,4 1.7,4.1 1.9,0.1 4.3,-0.1 6.2,-0.3 l -0.2,1.4 c -2.1,0.6 -4.2,0.7 -6.2,0.7 -3.2,0 -4,-2.3 -3.1,-7.1 0.7,-4.1 1.7,-6.6 6.5,-6.6 z m 3,3.8 c 0.3,-1.8 -0.8,-2 -3,-2 -4,0 -4.2,2.4 -4.6,4.6 -0.1,0 7,0.8 7.6,-2.6 z m -88.9,-83.1 c 0.1,-0.7 0.5,-1.1 1.2,-1.1 h 3.7 c 0.7,0 0.9,0.5 0.8,1.1 l -0.5,3.3 c -0.1,0.6 -0.6,1 -1.2,1 h -3.7 c -0.6,0 -1,-0.4 -0.9,-1 z m -0.8,6.8 h 5.1 l -3.7,23.1 h -5.1 z m 8.6,23.1 h 5.1 l 2.7,-17 c 2.6,-1.5 4,-2.2 6.8,-2.2 1.7,0 2.9,1.3 2.5,3.6 l -2.5,15.6 h 5.1 l 2.5,-15.5 0.2,-1.6 c 2.3,-1.5 4.2,-2 7,-2 1.7,0 2.9,1.3 2.5,3.6 l -2.5,15.6 h 5.1 l 2.4,-15.6 c 0.7,-4.6 -1.2,-7.9 -5.7,-7.9 -3.9,0 -7,1.7 -9.4,3.4 -0.6,-2 -2.7,-3.4 -5.5,-3.4 -3.6,0 -5.5,1.4 -8,2.9 l -0.7,-2.6 h -3.9 z m 69.2,-7.5 c -0.7,4.4 0.6,7.9 5.7,7.9 3.5,0 5.7,-1.3 8.3,-2.9 l 0.7,2.5 h 4 l 3.7,-23.1 h -5.1 l -2.7,17 c -2.6,1.5 -4.2,2.2 -7,2.2 -1.8,0 -3,-0.7 -2.5,-3.5 l 2.5,-15.7 h -5.1 z m 27.1,-0.7 c -0.9,5.8 1.2,8.2 5.4,8.2 h 3.6 l 0.5,-3.3 -2.8,-0.8 c -1.4,-0.4 -2.1,-0.8 -1.5,-4.7 l 4,-25.3 h -5.1 z m 13.7,7.5 c 1.5,0.7 8.8,1.1 12.4,1.1 2.6,0 5.8,-0.6 6.6,-5.3 l 0.4,-2.7 c 0.5,-3.3 -1.1,-6.1 -5.3,-6.1 h -5.8 c -1,0 -2.2,0.3 -1.8,-1.8 l 0.2,-1.6 c 0.1,-0.8 0.5,-1.9 2.5,-1.9 h 10.8 l 0.5,-3.4 c -1.8,-0.7 -8.2,-1 -11.9,-1 -4.5,0 -6.4,2 -7,5.8 l -0.3,2.1 c -0.7,4.4 1.6,6.3 5.7,6.3 h 5.7 c 1.5,0 1.8,0.7 1.6,1.8 l -0.3,1.6 c -0.3,1.9 -1.9,1.8 -2.1,1.8 h -11.3 z m 41.3,-15.6 c 0.4,-2.5 -1,-2.9 -4,-2.9 -5.1,0 -5.5,3.2 -6.1,6.5 0,0 9.3,1.2 10.1,-3.6 m -3.6,-7.2 c 5.2,0 9.3,1.4 8.8,6.7 -0.9,10.2 -14.2,8.2 -15.8,7.5 -0.7,4.2 0.2,5.4 3.3,5.4 2.8,0.2 7,-0.2 9.9,-0.7 l -0.6,3.7 c -3.6,1 -7.3,1.4 -11.6,1.3 -5.6,-0.2 -7.2,-4.6 -5.7,-13 1.4,-7.2 3.2,-10.9 11.7,-10.9 m -89.3,11.9 c -1,6.5 -2.9,7.4 -5.1,7.7 -2.4,0.4 -4.7,-0.3 -6.1,-0.9 l 2.4,-14.3 h 6 c 2.6,0 3.7,2.3 2.8,7.5 m -1.6,-11.7 c -3.8,0 -8.4,0.3 -11.7,0.9 l -4.8,29.1 h 5 l 1.3,-8 c 2,1.2 5,1.7 7,1.7 6.2,0 8.9,-4.4 9.9,-11.2 0.9,-6.3 -0.1,-12.5 -6.7,-12.5 m -68.9,-17.4 c 0.8,0.1 3,0.2 4.9,0.2 0.8,0 2.6,-0.1 2.8,-1.8 l 0.2,-1.3 c 0.2,-1.1 0.2,-1.9 -1.3,-1.9 h -2.7 c -3.1,0 -3.2,-1.9 -2.9,-3.4 L 245,233 c 0.5,-3.1 2.3,-3.6 4.4,-3.5 1,0 3.8,0.3 4.8,0.5 l -0.2,1.2 c -1,0 -4.9,-0.2 -4.9,-0.2 -1.5,-0.1 -2.5,0.2 -2.8,2 l -0.2,1.3 c -0.3,2.1 0.7,1.9 1.7,1.9 h 2.7 c 2.4,0 2.8,1.8 2.6,3.4 l -0.2,1.3 c -0.5,3 -2.9,3.2 -4.5,3.2 -1.5,0 -4.1,-0.3 -4.8,-0.5 z m 15.9,-12.9 h 1.5 l -2.3,14.4 h -1.5 z m 4.4,12.9 c 0.8,0.1 3,0.2 4.9,0.2 0.8,0 2.6,-0.1 2.8,-1.8 l 0.2,-1.3 c 0.2,-1.1 0.2,-1.9 -1.3,-1.9 H 268 c -3.1,0 -3.2,-1.9 -2.9,-3.4 l 0.2,-1.3 c 0.5,-3.1 2.3,-3.6 4.4,-3.5 1,0 3.8,0.3 4.8,0.5 l -0.2,1.2 c -1,0 -4.9,-0.2 -4.9,-0.2 -1.5,-0.1 -2.5,0.2 -2.8,2 l -0.2,1.3 c -0.3,2.1 0.7,1.9 1.7,1.9 h 2.7 c 2.4,0 2.8,1.8 2.6,3.4 l -0.2,1.3 c -0.5,3 -2.9,3.2 -4.5,3.2 -1.5,0 -4.1,-0.3 -4.8,-0.5 z m 14.8,-12.9 h 10 l -0.2,1.5 h -4.3 l -2,12.9 h -1.5 l 2,-12.9 h -4.2 z m 13.8,2.6 c 0.3,-1.9 1.4,-2.6 2.9,-2.6 l 6.2,0.3 -0.2,1.1 h -6.2 c -0.9,0 -1.1,0.6 -1.2,1.1 l -0.6,3.9 6.4,0.2 -0.2,1.2 -6.5,0.2 -0.6,3.9 c -0.1,1 0.5,1 1.1,1 h 6 l -0.2,1.1 -6.1,0.3 c -1.3,0.1 -2.6,-0.6 -2.3,-2.5 z m 14.7,-2.6 h 1.9 l 2,12 5.7,-12 h 2 l -1.2,14.4 h -1.5 l 1,-11.8 -5.6,11.8 h -1.5 l -1.9,-11.7 -2.7,11.7 h -1.5 z m 21.9,0 h 1.5 l 2.8,14.4 h -1.5 l -0.8,-4 h -5.8 l -2.1,4 h -1.6 z m 1.7,8.9 -1.2,-6.9 -3.6,6.9 z"
       id="path4"
       inkscape:connector-curvature="0"
       style="fill:#3a3a3a" /><path
       class="st1"
       d="M 185.2,206.7 H 110 c -19.3,0 -26.5,13.7 -26.9,26.6 v 56.8 c 0,15.4 8.9,24.3 11.7,26.8 l 41.9,34.9 c 1.3,1.3 5.9,4.3 11.6,4.3 2.9,0 6.1,-0.8 9.3,-3 l 2.9,-2.4 37.2,-31 c 14.3,-11.9 15.2,-27.5 15.2,-30.5 v -54.8 c 0.1,-21.2 -18,-27.4 -27.7,-27.7 z"
       id="path6"
       inkscape:connector-curvature="0"
       style="fill:#d50013;fill-opacity:1" /><path
       class="st2"
       d="m 212.4,294.6 c -1.1,6.3 -4.5,16.7 -14.6,25.2 l -35.6,29.7 -46.4,-45.9 c 8.2,-3.1 7.3,-7.6 7.3,-7.6 0,0 0.1,-2.5 -1.4,-5.4 -0.5,-1 -1.1,-2.6 -5.8,-10.5 -1.1,-2.3 5.6,-13.1 6.6,-12 l 25.4,25.4 c 0,0 0,0 0,0 -0.4,-2.5 -1.3,-4.8 -1.9,-6.1 -1.6,-3.5 -5,-9 -7.1,-12.3 -1.4,-2.2 -4.2,-7.1 -6,-10.3 -1.2,-2 -3.9,-7.8 -3.9,-7.8 3.8,-6.9 6.4,-10.9 6.4,-10.9 l 0.6,0.6 29,29.2 c 0,0 0,0 0,0 -1.9,-3 -3.4,-5.4 -3.4,-5.4 L 145.4,244 c -3.4,-5.7 -4.5,-7.4 -4.5,-7.4 6,-5.9 10.8,-3 13.4,-0.1 0.2,0.2 57.9,57.9 58.1,58.1 z"
       id="path8"
       inkscape:connector-curvature="0"
       style="fill:#b5000b;fill-opacity:1" /><path
       class="st3"
       d="m 166.4,303.6 -37.5,-46.9 6.4,-10.9 45.2,57.8 z m -11.7,0 -32.4,-35.9 -6.6,12 24.9,23.9 z"
       id="path10"
       inkscape:connector-curvature="0"
       style="fill:#a2a3a6" /><path
       class="st4"
       d="m 166.4,303.6 c 10.9,-3.1 7.1,-12 5.1,-16.6 -1.6,-3.8 -10.1,-16.9 -10.1,-16.9 l -16.1,-26.3 c -3.4,-5.7 -4.5,-7.4 -4.5,-7.4 8.6,-8.4 14.6,1.2 15.6,2.9 1.4,2.3 24,43.2 24,43.2 10.9,18 0,21.2 0,21.2 h -14 m -25.8,-0.1 h 14 c 0,0 12.6,-2.6 1.7,-20.6 l -21.2,-37.2 c 0,0 -2.6,4 -6.4,10.9 0,0 2.7,5.7 3.9,7.8 1.8,3.2 4.6,8.1 6,10.3 2.1,3.3 5.5,8.8 7.1,12.3 1.7,3.3 5.8,13.3 -5.1,16.5 m -24.8,0 h 14 c 0,0 12.6,-2.6 1.7,-20.6 0,0 -8.2,-14.3 -9.2,-15.3 -1,-1 -7.6,9.7 -6.6,12 4.7,7.9 5.3,9.5 5.8,10.5 1.5,3 1.4,5.4 1.4,5.4 0,0 0.2,4.6 -7.1,8"
       id="path12"
       inkscape:connector-curvature="0"
       style="fill:#efeeef" /></g></svg>