<?xml version="1.0" encoding="UTF-8" standalone="no"?>
<!-- Generator: Adobe Illustrator 21.0.2, SVG Export Plug-In . SVG Version: 6.00 Build 0)  -->

<svg
   xmlns:dc="http://purl.org/dc/elements/1.1/"
   xmlns:cc="http://creativecommons.org/ns#"
   xmlns:rdf="http://www.w3.org/1999/02/22-rdf-syntax-ns#"
   xmlns:svg="http://www.w3.org/2000/svg"
   xmlns="http://www.w3.org/2000/svg"
   xmlns:sodipodi="http://sodipodi.sourceforge.net/DTD/sodipodi-0.dtd"
   xmlns:inkscape="http://www.inkscape.org/namespaces/inkscape"
   version="1.1"
   id="Layer_1"
   x="0px"
   y="0px"
   viewBox="0 0 97.800003 112.3"
   xml:space="preserve"
   sodipodi:docname="logo-solo.svg"
   inkscape:export-filename="/home/leandro/Downloads/Arquivos para desenvolvimento/Interface/Sismema_Impulse_Bilingue_Site.svg.png"
   inkscape:export-xdpi="96"
   inkscape:export-ydpi="96"
   width="97.800003"
   height="112.3"
   inkscape:version="0.92.2 (5c3e80d, 2017-08-06)"><metadata
     id="metadata1476"><rdf:RDF><cc:Work
         rdf:about=""><dc:format>image/svg+xml</dc:format><dc:type
           rdf:resource="http://purl.org/dc/dcmitype/StillImage" /><dc:title></dc:title></cc:Work></rdf:RDF></metadata><defs
     id="defs1474" /><sodipodi:namedview
     pagecolor="#ffffff"
     bordercolor="#666666"
     borderopacity="1"
     objecttolerance="10"
     gridtolerance="10"
     guidetolerance="10"
     inkscape:pageopacity="0"
     inkscape:pageshadow="2"
     inkscape:window-width="1299"
     inkscape:window-height="713"
     id="namedview1472"
     showgrid="false"
     inkscape:zoom="0.90509668"
     inkscape:cx="62.376854"
     inkscape:cy="128.7306"
     inkscape:window-x="67"
     inkscape:window-y="27"
     inkscape:window-maximized="1"
     inkscape:current-layer="Layer_1" /><style
     type="text/css"
     id="style2">
	.st0{fill:#CF2927;}
	.st1{fill:#B1211E;}
	.st2{fill:#FFFFFF;}
	.st3{opacity:0.8;fill:url(#SVGID_3_);}
	.st4{fill:#5A5B5D;}
	.st5{fill:#5A5B5D;stroke:#5A5B5D;stroke-width:0.4685;stroke-miterlimit:10;}
	.st6{fill:#A6A8AB;}
	.st7{fill:#F1F1F2;}
	.st8{fill:none;stroke:#FFFFFF;stroke-width:0.25;stroke-miterlimit:10;}
	.st9{font-family:'Exo-Bold';}
	.st10{font-size:46.2986px;}
	.st11{font-family:'Exo-Regular';}
	.st12{font-size:30.4149px;}
	.st13{fill:#E6E6E6;}
	.st14{font-size:18px;}
	.st15{font-family:'Exo-Light';}
	.st16{fill:none;stroke:#E6E6E6;stroke-width:2;stroke-miterlimit:10;}
	.st17{fill:#9A9C9F;}
	.st18{font-size:21.5429px;}
	.st19{fill:none;}
	.st20{fill:#808080;}
	.st21{font-size:16px;}
	.st22{opacity:0.25;fill:url(#SVGID_4_);}
	.st23{opacity:0.25;fill:url(#SVGID_5_);}
	.st24{opacity:0.67;fill:#F2F2F2;}
	.st25{font-size:13.605px;}
	.st26{letter-spacing:2;}
	.st27{fill:#F2F2F2;}
	.st28{fill:none;stroke:#CF2927;stroke-miterlimit:10;}
	.st29{fill:none;stroke:#CCCCCC;stroke-miterlimit:10;}
	.st30{font-family:'Exo-Italic';}
	.st31{font-size:10.5162px;}
	.st32{font-size:14px;}
	.st33{font-size:12px;}
	.st34{opacity:0.6;}
	.st35{font-size:10px;}
	.st36{font-family:'Exo-Black';}
	.st37{font-size:11px;}
	.st38{font-family:'Exo-DemiBold';}
	.st39{fill:#58595B;}
	.st40{font-family:'Exo-ExtraBold';}
	.st41{font-size:20.3014px;}
	.st42{fill-rule:evenodd;clip-rule:evenodd;fill:#FFFFFF;}
	.st43{font-family:'Exo-Medium';}
	.st44{font-size:15.3767px;}
	.st45{font-size:18.8593px;}
	.st46{letter-spacing:-1;}
	.st47{fill:#0071BC;}
	.st48{fill:none;stroke:#FFFFFF;stroke-miterlimit:10;}
	.st49{fill:#B3B3B3;}
	.st50{font-family:'Exo-Light-Italic';}
	.st51{letter-spacing:1;}
	.st52{font-size:18.5221px;}
	.st53{font-size:14.591px;}
	.st54{fill:#C32C27;}
	.st55{fill:#A8241E;}
	.st56{fill:#A5A6A9;}
	.st57{fill:#F0F0F1;}
	.st58{fill:#F3F5F5;}
	.st59{font-size:21.74px;}
	.st60{font-size:18.6343px;}
	.st61{fill:#CF2927;stroke:#CF2927;stroke-width:2.8381;stroke-miterlimit:10;}
	.st62{fill:none;stroke:#CF2927;stroke-width:5.1142;stroke-linecap:round;stroke-linejoin:round;stroke-miterlimit:10;}
	.st63{clip-path:url(#SVGID_9_);}
</style><linearGradient
     id="SVGID_3_"
     gradientUnits="userSpaceOnUse"
     x1="-0.61860001"
     y1="524.10907"
     x2="1920.5669"
     y2="524.10907"><stop
       offset="0"
       style="stop-color:#58595B"
       id="stop28" /><stop
       offset="0.5117"
       style="stop-color:#757677"
       id="stop30" /><stop
       offset="1"
       style="stop-color:#555658"
       id="stop32" /></linearGradient><linearGradient
     id="SVGID_4_"
     gradientUnits="userSpaceOnUse"
     x1="1152.7441"
     y1="1409.5017"
     x2="1152.7441"
     y2="1545.3948"><stop
       offset="0"
       style="stop-color:#FFFFFF;stop-opacity:0"
       id="stop142" /><stop
       offset="3.624004e-02"
       style="stop-color:#F4F4F4;stop-opacity:3.624004e-02"
       id="stop144" /><stop
       offset="0.3988"
       style="stop-color:#8D8D8D;stop-opacity:0.3988"
       id="stop146" /><stop
       offset="0.6904"
       style="stop-color:#414141;stop-opacity:0.6904"
       id="stop148" /><stop
       offset="0.8971"
       style="stop-color:#121212;stop-opacity:0.8971"
       id="stop150" /><stop
       offset="1"
       style="stop-color:#000000"
       id="stop152" /></linearGradient><linearGradient
     id="SVGID_5_"
     gradientUnits="userSpaceOnUse"
     x1="1186.2559"
     y1="1896.8486"
     x2="1186.2559"
     y2="2032.7417"
     gradientTransform="rotate(180,1169.5,1591)"><stop
       offset="0"
       style="stop-color:#FFFFFF;stop-opacity:0"
       id="stop157" /><stop
       offset="3.624004e-02"
       style="stop-color:#F4F4F4;stop-opacity:3.624004e-02"
       id="stop159" /><stop
       offset="0.3988"
       style="stop-color:#8D8D8D;stop-opacity:0.3988"
       id="stop161" /><stop
       offset="0.6904"
       style="stop-color:#414141;stop-opacity:0.6904"
       id="stop163" /><stop
       offset="0.8971"
       style="stop-color:#121212;stop-opacity:0.8971"
       id="stop165" /><stop
       offset="1"
       style="stop-color:#000000"
       id="stop167" /></linearGradient><g
     transform="translate(-909,-5939.5)"
     id="g372"><path
       inkscape:connector-curvature="0"
       class="st0"
       d="m 986.9,5939.5 h -56.5 c -14.5,0 -21.1,10.3 -21.4,20 v 42.7 c 0,11.6 6.7,18.3 8.8,20.1 l 31.5,26.3 c 1,1 4.4,3.2 8.7,3.2 2.2,0 4.6,-0.6 7,-2.3 l 2.2,-1.8 27.9,-23.3 c 10.7,-8.9 11.4,-20.7 11.4,-22.9 v -41.2 c 0.2,-16 -12.3,-20.6 -19.6,-20.8 z"
       id="path354"
       style="fill:#cf2927" /><path
       inkscape:connector-curvature="0"
       class="st0"
       d="m 995.2,6024.4 c 10.7,-8.9 11.4,-20.7 11.4,-22.9 v -41.2 c 0,-16 -12.5,-20.6 -19.7,-20.8 h -56.5 c -14.5,0 -21.1,10.3 -21.4,20 v 42.7 c 0,11.6 6.7,18.3 8.8,20.1 l 31.5,26.3 c 1,1 4.4,3.2 8.7,3.2 0,0 0,0 0,0 2.2,0 4.6,-0.6 7,-2.3 l 2.2,-1.8 z"
       id="path356"
       style="fill:#cf2927" /><path
       inkscape:connector-curvature="0"
       class="st1"
       d="m 1005.8,6005.1 c -0.1,-0.2 -0.3,-0.3 -0.5,-0.5 -0.1,-0.2 -0.3,-0.3 -0.5,-0.5 -0.1,-0.2 -0.3,-0.3 -0.5,-0.5 -0.1,-0.2 -0.3,-0.3 -0.5,-0.5 -0.1,-0.2 -0.3,-0.3 -0.5,-0.5 -0.1,-0.2 -0.3,-0.3 -0.5,-0.5 -0.1,-0.2 -0.3,-0.3 -0.5,-0.5 -0.1,-0.2 -0.3,-0.3 -0.5,-0.5 -0.1,-0.2 -0.3,-0.3 -0.5,-0.5 -0.1,-0.2 -0.3,-0.3 -0.5,-0.5 -0.1,-0.2 -0.3,-0.3 -0.5,-0.5 -0.1,-0.2 -0.3,-0.3 -0.5,-0.5 -0.1,-0.2 -0.3,-0.3 -0.5,-0.5 -0.1,-0.2 -0.3,-0.3 -0.5,-0.5 -0.1,-0.2 -0.3,-0.3 -0.5,-0.5 -0.1,-0.2 -0.3,-0.3 -0.5,-0.5 -0.1,-0.2 -0.3,-0.3 -0.5,-0.5 -0.1,-0.2 -0.3,-0.3 -0.5,-0.5 -0.1,-0.2 -0.3,-0.3 -0.5,-0.5 -0.1,-0.2 -0.3,-0.3 -0.5,-0.5 -0.1,-0.2 -0.3,-0.3 -0.5,-0.5 -0.1,-0.2 -0.3,-0.3 -0.5,-0.5 -0.1,-0.2 -0.3,-0.3 -0.5,-0.5 -0.1,-0.2 -0.3,-0.3 -0.5,-0.5 -0.1,-0.2 -0.3,-0.3 -0.5,-0.5 -0.1,-0.2 -0.3,-0.3 -0.5,-0.5 -0.1,-0.2 -0.3,-0.3 -0.5,-0.5 -0.1,-0.2 -0.3,-0.3 -0.5,-0.5 -0.1,-0.2 -0.3,-0.3 -0.5,-0.5 -0.1,-0.2 -0.3,-0.3 -0.5,-0.5 -0.1,-0.2 -0.3,-0.3 -0.5,-0.5 -0.1,-0.2 -0.3,-0.3 -0.5,-0.5 -0.1,-0.2 -0.3,-0.3 -0.5,-0.5 -0.1,-0.2 -0.3,-0.3 -0.5,-0.5 -0.1,-0.2 -0.3,-0.3 -0.5,-0.5 -0.1,-0.2 -0.3,-0.3 -0.5,-0.5 -0.1,-0.2 -0.3,-0.3 -0.5,-0.5 -0.1,-0.2 -0.3,-0.3 -0.5,-0.5 -0.1,-0.2 -0.3,-0.3 -0.5,-0.5 -0.1,-0.2 -0.3,-0.3 -0.5,-0.5 -0.1,-0.2 -0.3,-0.3 -0.5,-0.5 -0.1,-0.2 -0.3,-0.3 -0.5,-0.5 -0.1,-0.2 -0.3,-0.3 -0.5,-0.5 -0.1,-0.2 -0.3,-0.3 -0.5,-0.5 -0.1,-0.2 -0.3,-0.3 -0.5,-0.5 -0.1,-0.2 -0.3,-0.3 -0.5,-0.5 -0.1,-0.2 -0.3,-0.3 -0.5,-0.5 -0.1,-0.2 -0.3,-0.3 -0.5,-0.5 -0.1,-0.2 -0.3,-0.3 -0.5,-0.5 -0.1,-0.2 -0.3,-0.3 -0.5,-0.5 -0.1,-0.2 -0.3,-0.3 -0.5,-0.5 -0.1,-0.2 -0.3,-0.3 -0.5,-0.5 -0.1,-0.2 -0.3,-0.3 -0.5,-0.5 -0.1,-0.2 -0.3,-0.3 -0.5,-0.5 -0.1,-0.2 -0.3,-0.3 -0.5,-0.5 -0.1,-0.2 -0.3,-0.3 -0.5,-0.5 -0.1,-0.2 -0.3,-0.3 -0.5,-0.5 -0.1,-0.2 -0.3,-0.3 -0.5,-0.5 -0.1,-0.2 -0.3,-0.3 -0.5,-0.5 -0.1,-0.2 -0.3,-0.3 -0.5,-0.5 -0.1,-0.2 -0.3,-0.3 -0.5,-0.5 -0.1,-0.2 -0.3,-0.3 -0.5,-0.5 -0.1,-0.2 -0.3,-0.3 -0.5,-0.5 -0.1,-0.2 -0.3,-0.3 -0.5,-0.5 -0.1,-0.2 -0.3,-0.3 -0.5,-0.5 -0.1,-0.2 -0.3,-0.3 -0.5,-0.5 -0.1,-0.2 -0.3,-0.3 -0.5,-0.5 -0.1,-0.2 -0.3,-0.3 -0.5,-0.5 -0.1,-0.2 -0.3,-0.3 -0.5,-0.5 -0.1,-0.2 -0.3,-0.3 -0.5,-0.5 -0.1,-0.2 -0.3,-0.3 -0.5,-0.5 -0.1,-0.2 -0.3,-0.3 -0.5,-0.5 -0.1,-0.2 -0.3,-0.3 -0.5,-0.5 -0.1,-0.2 -0.3,-0.3 -0.5,-0.5 -0.1,-0.2 -0.3,-0.3 -0.5,-0.5 -0.1,-0.2 -0.3,-0.3 -0.5,-0.5 -0.1,-0.2 -0.3,-0.3 -0.5,-0.5 -0.1,-0.2 -0.3,-0.3 -0.5,-0.5 -0.1,-0.2 -0.3,-0.3 -0.5,-0.5 -0.1,-0.2 -0.3,-0.3 -0.5,-0.5 -0.1,-0.2 -0.3,-0.3 -0.5,-0.5 -0.1,-0.2 -0.3,-0.3 -0.5,-0.5 -0.1,-0.2 -0.3,-0.3 -0.5,-0.5 -0.1,-0.2 -0.3,-0.3 -0.5,-0.5 -0.1,-0.2 -0.3,-0.3 -0.5,-0.5 -0.1,-0.2 -0.3,-0.3 -0.5,-0.5 -0.1,-0.2 -0.3,-0.3 -0.5,-0.5 -0.1,-0.2 -0.3,-0.3 -0.5,-0.5 -0.1,-0.2 -0.3,-0.3 -0.5,-0.5 -0.1,-0.2 -0.3,-0.3 -0.5,-0.5 -0.1,-0.2 -0.3,-0.3 -0.5,-0.5 -0.1,-0.2 -0.3,-0.3 -0.5,-0.5 -0.1,-0.2 -0.3,-0.3 -0.5,-0.5 -0.1,-0.2 -0.3,-0.3 -0.5,-0.5 -0.1,-0.2 -0.3,-0.3 -0.5,-0.5 -2,-2.2 -5.6,-4.3 -10.1,0.1 0,0 0.8,1.3 3.4,5.6 l 12.1,19.8 c 0,0 1.2,1.8 2.6,4.1 0,0 0,0 0,0 l -0.4,-0.5 c 0,0 0,0 0,0.1 l -0.4,-0.5 c 0,0 0,0 0,0.1 l -0.4,-0.5 c 0,0 0,0 0,0.1 l -0.4,-0.5 c 0,0 0,0 0,0.1 l -0.4,-0.5 c 0,0 0,0 0,0.1 l -0.4,-0.5 c 0,0 0,0 0,0.1 l -0.4,-0.5 c 0,0 0,0 0,0.1 l -0.4,-0.5 c 0,0 0,0 0,0.1 l -0.4,-0.5 c 0,0 0,0 0,0.1 l -0.4,-0.5 c 0,0 0,0 0,0.1 l -0.4,-0.5 c 0,0 0,0 0,0.1 l -0.4,-0.5 c 0,0 0,0 0,0.1 l -0.4,-0.5 c 0,0 0,0 0,0.1 l -0.4,-0.5 c 0,0 0,0 0,0.1 l -0.4,-0.5 c 0,0 0,0 0,0.1 l -0.4,-0.5 c 0,0 0,0 0,0.1 l -0.4,-0.5 c 0,0 0,0 0,0.1 l -0.4,-0.5 c 0,0 0,0 0,0.1 l -0.4,-0.5 c 0,0 0,0 0,0.1 l -0.4,-0.5 c 0,0 0,0 0,0.1 l -0.4,-0.5 c 0,0 0,0 0,0.1 l -0.4,-0.5 c 0,0 0,0 0,0.1 l -0.4,-0.5 c 0,0 0,0 0,0.1 l -0.4,-0.5 c 0,0 0,0 0,0.1 l -0.4,-0.5 c 0,0 0,0 0,0.1 l -0.4,-0.5 c 0,0 0,0 0,0.1 l -0.4,-0.5 c 0,0 0,0 0,0.1 l -0.4,-0.5 c 0,0 0,0 0,0.1 l -0.4,-0.5 c 0,0 0,0 0,0.1 l -0.4,-0.5 c 0,0 0,0 0,0.1 l -0.4,-0.5 c 0,0 0,0 0,0.1 l -0.4,-0.5 c 0,0 0,0 0,0.1 l -0.4,-0.5 c 0,0 0,0 0,0.1 l -0.4,-0.5 c 0,0 0,0 0,0.1 l -0.4,-0.5 c 0,0 0,0 0,0.1 l -0.4,-0.5 c 0,0 0,0 0,0.1 l -0.4,-0.5 c 0,0 0,0 0,0.1 l -0.4,-0.5 c 0,0 0,0 0,0.1 l -0.4,-0.5 c 0,0 0,0 0,0.1 l -0.4,-0.5 c 0,0 0,0 0,0.1 l -0.4,-0.5 c 0,0 0,0 0,0.1 l -0.4,-0.5 c 0,0 0,0 0,0.1 l -0.4,-0.5 c 0,0 0,0 0,0.1 l -0.4,-0.5 c 0,0 0,0 0,0.1 l -0.4,-0.5 c 0,0 0,0 0,0.1 l -0.4,-0.5 c 0,0 0,0 0,0.1 l -0.4,-0.5 c 0,0 0,0 0,0.1 l -0.4,-0.5 c 0,0 0,0 0,0.1 l -0.4,-0.5 c 0,0 -1.9,3 -4.8,8.2 0,0 2,4.3 2.9,5.8 1.4,2.4 3.4,6.1 4.5,7.7 1.6,2.4 4.1,6.6 5.3,9.2 0.5,1 1.2,2.7 1.4,4.6 0,0 0,0 0,0 l -0.4,-0.5 c 0,0 0,0 0,0 l -0.4,-0.5 c 0,0 0,0 0,0 l -0.4,-0.5 c 0,0 0,0 0,0 l -0.4,-0.5 c 0,0 0,0 0,0 l -0.4,-0.5 c 0,0 0,0 0,0 l -0.4,-0.5 c 0,0 0,0 0,0 l -0.4,-0.5 c 0,0 0,0 0,0 l -0.4,-0.5 c 0,0 0,0 0,0 l -0.4,-0.5 c 0,0 0,0 0,0 L 952,5998 c 0,0 0,0 0,0 l -0.4,-0.5 c 0,0 0,0 0,0 l -0.4,-0.5 c 0,0 0,0 0,0 l -0.4,-0.5 c 0,0 0,0 0,0 l -0.4,-0.5 c 0,0 0,0 0,0 l -0.4,-0.5 c 0,0 0,0 0,0 l -0.4,-0.5 c 0,0 0,0 0,0 l -0.4,-0.5 c 0,0 0,0 0,0 l -0.4,-0.5 c 0,0 0,0 0,0 l -0.4,-0.5 c 0,0 0,0 0,0 L 948,5993 c 0,0 0,0 0,0 l -0.4,-0.5 c 0,0 0,0 0,0 l -0.4,-0.5 c 0,0 0,0 0,0 l -0.4,-0.5 c 0,0 0,0 0,0 l -0.4,-0.5 c 0,0 0,0 0,0 l -0.4,-0.5 c 0,0 0,0 0,0 l -0.4,-0.5 c 0,0 0,0 0,0 l -0.4,-0.5 c 0,0 0,0 0,0 l -0.4,-0.5 c 0,0 0,0 0,0 l -0.4,-0.5 c 0,0 0,0 0,0 L 944,5988 c 0,0 0,0 0,0 l -0.4,-0.5 c 0,0 0,0 0,0 l -0.4,-0.5 c 0,0 0,0 0,0 l -0.4,-0.5 c 0,0 0,0 0,0 l -0.4,-0.5 c 0,0 0,0 0,0 l -0.4,-0.5 c 0,0 0,0 0,0 l -0.4,-0.5 c 0,0 0,0 0,0 l -0.4,-0.5 c 0,0 0,0 0,0 l -0.4,-0.5 c 0,0 0,0 0,0 l -0.4,-0.5 c 0,0 0,0 0,0 L 940,5983 c 0,0 0,0 0,0 l -0.4,-0.5 c 0,0 0,0 0,0 l -0.4,-0.5 c -0.7,-0.8 -5.7,7.3 -4.9,9 3.5,6 4,7.2 4.3,7.9 1.1,2.2 1,4.1 1,4.1 0,0 0.7,3.4 -5.5,5.7 l 34.9,34.5 26.8,-22.3 c 7.7,-6.4 10.2,-14.2 11,-18.9 -0.7,3.3 -0.8,3.2 -1,3.1 z"
       id="path358"
       style="fill:#b1211e" /><polygon
       class="st6"
       points="948.2,5968.8 982.2,6012.2 971.7,6012.2 943.5,5977 "
       id="polygon360"
       style="fill:#a6a8ab" /><polygon
       class="st6"
       points="938.5,5985.2 962.9,6012.2 952.3,6012.2 933.6,5994.3 "
       id="polygon362"
       style="fill:#a6a8ab" /><g
       id="g370"><path
         inkscape:connector-curvature="0"
         class="st7"
         d="m 971.7,6012.2 h 10.5 c 0,0 8.2,-2.4 0,-15.9 0,0 -17,-30.7 -18,-32.5 -0.8,-1.3 -5.3,-8.5 -11.8,-2.1 0,0 0.8,1.3 3.4,5.6 l 12.1,19.8 c 0,0 6.4,9.9 7.6,12.7 1.5,3.4 4.3,10.1 -3.8,12.4"
         id="path364"
         style="fill:#f1f1f2" /><path
         inkscape:connector-curvature="0"
         class="st7"
         d="m 952.3,6012.2 c 8.2,-2.4 5.1,-9.9 3.9,-12.5 -1.2,-2.6 -3.8,-6.8 -5.3,-9.2 -1,-1.6 -3.1,-5.3 -4.5,-7.7 -0.9,-1.5 -2.9,-5.8 -2.9,-5.8 2.8,-5.2 4.8,-8.2 4.8,-8.2 l 15.9,28 c 8.2,13.5 -1.3,15.5 -1.3,15.5 h -10.6"
         id="path366"
         style="fill:#f1f1f2" /><path
         inkscape:connector-curvature="0"
         class="st7"
         d="m 933.6,6012.2 c 5.5,-2.5 5.4,-5.9 5.4,-5.9 0,0 0.1,-1.8 -1,-4.1 -0.4,-0.8 -0.8,-2 -4.3,-7.9 -0.8,-1.7 4.2,-9.8 4.9,-9 0.7,0.8 6.9,11.5 6.9,11.5 8.2,13.5 -1.3,15.5 -1.3,15.5 h -10.6"
         id="path368"
         style="fill:#f1f1f2" /></g></g></svg>