<?xml version="1.0" encoding="UTF-8" standalone="no"?>
<!-- Generator: Adobe Illustrator 21.0.2, SVG Export Plug-In . SVG Version: 6.00 Build 0)  -->

<svg
   xmlns:osb="http://www.openswatchbook.org/uri/2009/osb"
   xmlns:dc="http://purl.org/dc/elements/1.1/"
   xmlns:cc="http://creativecommons.org/ns#"
   xmlns:rdf="http://www.w3.org/1999/02/22-rdf-syntax-ns#"
   xmlns:svg="http://www.w3.org/2000/svg"
   xmlns="http://www.w3.org/2000/svg"
   xmlns:sodipodi="http://sodipodi.sourceforge.net/DTD/sodipodi-0.dtd"
   xmlns:inkscape="http://www.inkscape.org/namespaces/inkscape"
   version="1.1"
   id="Camada_1"
   x="0px"
   y="0px"
   viewBox="0 0 135.8004 155.5"
   xml:space="preserve"
   sodipodi:docname="logo-solo-border.svg"
   width="135.8004"
   height="155.5"
   inkscape:version="0.92.2 (5c3e80d, 2017-08-06)"><metadata
     id="metadata107"><rdf:RDF><cc:Work
         rdf:about=""><dc:format>image/svg+xml</dc:format><dc:type
           rdf:resource="http://purl.org/dc/dcmitype/StillImage" /><dc:title /></cc:Work></rdf:RDF></metadata><defs
     id="defs105"><linearGradient
       id="linearGradient1733"
       osb:paint="solid"><stop
         style="stop-color:#000000;stop-opacity:1;"
         offset="0"
         id="stop1731" /></linearGradient></defs><sodipodi:namedview
     pagecolor="#ffffff"
     bordercolor="#666666"
     borderopacity="1"
     objecttolerance="10"
     gridtolerance="10"
     guidetolerance="10"
     inkscape:pageopacity="0"
     inkscape:pageshadow="2"
     inkscape:window-width="1299"
     inkscape:window-height="713"
     id="namedview103"
     showgrid="false"
     inkscape:zoom="1"
     inkscape:cx="233.95552"
     inkscape:cy="3.752721"
     inkscape:window-x="67"
     inkscape:window-y="27"
     inkscape:window-maximized="1"
     inkscape:current-layer="g98" /><style
     type="text/css"
     id="style2">
	.st0{fill:#3A3A3A;}
	.st1{fill:#9E302C;}
	.st2{fill:#892A23;}
	.st3{fill:#A2A3A6;}
	.st4{fill:#EFEEEF;}
	.st5{fill:#373737;}
	.st6{fill:#A7302C;}
</style><g
     id="g100"
     transform="translate(-722,-154.5)"><g
       id="g88"><path
         class="st6"
         d="M 790,306.3"
         id="path84"
         inkscape:connector-curvature="0"
         style="fill:#a7302c" /><path
         class="st6"
         d="m 790,306.3 c 0,0 0,0 0,0"
         id="path86"
         inkscape:connector-curvature="0"
         style="fill:#a7302c" /></g><g
       id="g98"><path
         class="st1"
         d="m 827.1,157.5 h -75.2 c -19.3,0 -26.5,13.7 -26.9,26.6 V 241 c 0,15.4 8.9,24.3 11.7,26.8 l 41.9,34.9 c 1.3,1.3 5.9,4.3 11.6,4.3 2.9,0 6.1,-0.8 9.3,-3 l 2.9,-2.4 37.2,-31 c 14.3,-11.9 15.2,-27.5 15.2,-30.5 v -54.8 c 0.1,-21.3 -18,-27.5 -27.7,-27.8 z"
         id="path90"
         style="fill:#d50013;stroke:#ffffff;stroke-width:6;stroke-miterlimit:4;stroke-dasharray:none;stroke-opacity:1;fill-opacity:1"
         inkscape:connector-curvature="0" /><path
         class="st2"
         d="m 851.66063,243.85269 c -1.06995,6.14079 -4.37707,16.27797 -14.20117,24.56318 L 803.1828,296.92673 757.7,254.4 c 7.97601,-3.02166 7.1,-9.18269 7.1,-9.18269 0,0 0.0973,-2.43682 -1.36176,-5.26354 -0.48634,-0.97473 -1.06995,-2.5343 -5.64156,-10.23466 C 756.72673,227.47724 763.22732,217.4278 764.2,218.5 l 24.72255,24.28049 v 0 c -0.38907,-2.43683 -1.26449,-4.67871 -1.8481,-5.94585 -1.55629,-3.41156 -4.86342,-8.77256 -6.90605,-11.98918 -1.36176,-2.1444 -4.08527,-6.92057 -5.8361,-10.0397 C 773.16508,212.85629 770.8,207.5 770.8,207.5 c 3.6962,-6.72563 6.54762,-10.33684 6.54762,-10.33684 v 0 l 28.20782,28.46208 v 0 c -1.8481,-2.92418 -3.30713,-5.26353 -3.30713,-5.26353 l -15.6602,-25.63538 C 783.28099,189.17037 782.7,187.2 782.7,187.2 c 5.8361,-5.75091 10.01602,-2.61085 12.54499,0.21584 0.19454,0 56.31838,56.24188 56.41564,56.43683 z"
         id="path92"
         inkscape:connector-curvature="0"
         style="fill:#b5000b;stroke-width:0.97370589;fill-opacity:1"
         sodipodi:nodetypes="cccccccccccccccccccccccc" /><path
         class="st3"
         d="m 808.3,254.4 -37.5,-46.9 6.4,-10.9 45.2,57.8 z m -11.7,0 -32.4,-35.9 -6.6,12 24.9,23.9 z"
         id="path94"
         inkscape:connector-curvature="0"
         style="fill:#a5a6aa;fill-opacity:1" /><path
         class="st4"
         d="m 808.3,254.4 c 10.9,-3.1 7.1,-12 5.1,-16.6 -1.6,-3.8 -10.1,-16.9 -10.1,-16.9 l -16.1,-26.3 c -3.4,-5.7 -4.5,-7.4 -4.5,-7.4 8.6,-8.4 14.6,1.2 15.6,2.9 1.4,2.3 24,43.2 24,43.2 10.9,18 0,21.2 0,21.2 h -14 m -25.7,-0.1 h 14 c 0,0 7.38385,-1.52365 5.95675,-10.31315 C 802.11962,241.3946 800.85584,238.02066 798.3,233.8 l -21.2,-37.2 c 0,0 -2.6,4 -6.4,10.9 0,0 2.7,5.7 3.9,7.8 1.8,3.2 4.6,8.1 6,10.3 2.1,3.3 5.5,8.8 7.1,12.3 1.6,3.4 5.7,13.3 -5.1,16.5 m -24.9,0 h 14 c 0,0 12.6,-2.6 1.7,-20.6 0,0 -8.2,-14.3 -9.2,-15.3 -1,-1 -7.6,9.7 -6.6,12 4.7,7.9 5.3,9.5 5.8,10.5 1.5,3 1.4,5.4 1.4,5.4 0,0 0.2,4.7 -7.1,8"
         id="path96"
         inkscape:connector-curvature="0"
         style="fill:#f1f0f2;fill-opacity:1"
         sodipodi:nodetypes="cccccccccccsccccscccccscscc" /></g></g></svg>