<?xml version="1.0" encoding="UTF-8" standalone="no"?>
<!-- Generator: Adobe Illustrator 21.0.2, SVG Export Plug-In . SVG Version: 6.00 Build 0)  -->

<svg
   xmlns:dc="http://purl.org/dc/elements/1.1/"
   xmlns:cc="http://creativecommons.org/ns#"
   xmlns:rdf="http://www.w3.org/1999/02/22-rdf-syntax-ns#"
   xmlns:svg="http://www.w3.org/2000/svg"
   xmlns="http://www.w3.org/2000/svg"
   xmlns:sodipodi="http://sodipodi.sourceforge.net/DTD/sodipodi-0.dtd"
   xmlns:inkscape="http://www.inkscape.org/namespaces/inkscape"
   version="1.1"
   id="Layer_1"
   x="0px"
   y="0px"
   viewBox="0 0 104.2 94.300005"
   xml:space="preserve"
   sodipodi:docname="marca.svg"
   width="104.2"
   height="94.300003"
   inkscape:version="0.92.2 (5c3e80d, 2017-08-06)"><metadata
     id="metadata1476"><rdf:RDF><cc:Work
         rdf:about=""><dc:format>image/svg+xml</dc:format><dc:type
           rdf:resource="http://purl.org/dc/dcmitype/StillImage" /><dc:title></dc:title></cc:Work></rdf:RDF></metadata><defs
     id="defs1474" /><sodipodi:namedview
     pagecolor="#ffffff"
     bordercolor="#666666"
     borderopacity="1"
     objecttolerance="10"
     gridtolerance="10"
     guidetolerance="10"
     inkscape:pageopacity="0"
     inkscape:pageshadow="2"
     inkscape:window-width="1299"
     inkscape:window-height="713"
     id="namedview1472"
     showgrid="false"
     inkscape:zoom="0.11313708"
     inkscape:cx="-1018.5926"
     inkscape:cy="-1752.213"
     inkscape:window-x="67"
     inkscape:window-y="27"
     inkscape:window-maximized="1"
     inkscape:current-layer="g252" /><style
     type="text/css"
     id="style2">
	.st0{fill:#CF2927;}
	.st1{fill:#B1211E;}
	.st2{fill:#FFFFFF;}
	.st3{opacity:0.8;fill:url(#SVGID_3_);}
	.st4{fill:#5A5B5D;}
	.st5{fill:#5A5B5D;stroke:#5A5B5D;stroke-width:0.4685;stroke-miterlimit:10;}
	.st6{fill:#A6A8AB;}
	.st7{fill:#F1F1F2;}
	.st8{fill:none;stroke:#FFFFFF;stroke-width:0.25;stroke-miterlimit:10;}
	.st9{font-family:'Exo-Bold';}
	.st10{font-size:46.2986px;}
	.st11{font-family:'Exo-Regular';}
	.st12{font-size:30.4149px;}
	.st13{fill:#E6E6E6;}
	.st14{font-size:18px;}
	.st15{font-family:'Exo-Light';}
	.st16{fill:none;stroke:#E6E6E6;stroke-width:2;stroke-miterlimit:10;}
	.st17{fill:#9A9C9F;}
	.st18{font-size:21.5429px;}
	.st19{fill:none;}
	.st20{fill:#808080;}
	.st21{font-size:16px;}
	.st22{opacity:0.25;fill:url(#SVGID_4_);}
	.st23{opacity:0.25;fill:url(#SVGID_5_);}
	.st24{opacity:0.67;fill:#F2F2F2;}
	.st25{font-size:13.605px;}
	.st26{letter-spacing:2;}
	.st27{fill:#F2F2F2;}
	.st28{fill:none;stroke:#CF2927;stroke-miterlimit:10;}
	.st29{fill:none;stroke:#CCCCCC;stroke-miterlimit:10;}
	.st30{font-family:'Exo-Italic';}
	.st31{font-size:10.5162px;}
	.st32{font-size:14px;}
	.st33{font-size:12px;}
	.st34{opacity:0.6;}
	.st35{font-size:10px;}
	.st36{font-family:'Exo-Black';}
	.st37{font-size:11px;}
	.st38{font-family:'Exo-DemiBold';}
	.st39{fill:#58595B;}
	.st40{font-family:'Exo-ExtraBold';}
	.st41{font-size:20.3014px;}
	.st42{fill-rule:evenodd;clip-rule:evenodd;fill:#FFFFFF;}
	.st43{font-family:'Exo-Medium';}
	.st44{font-size:15.3767px;}
	.st45{font-size:18.8593px;}
	.st46{letter-spacing:-1;}
	.st47{fill:#0071BC;}
	.st48{fill:none;stroke:#FFFFFF;stroke-miterlimit:10;}
	.st49{fill:#B3B3B3;}
	.st50{font-family:'Exo-Light-Italic';}
	.st51{letter-spacing:1;}
	.st52{font-size:18.5221px;}
	.st53{font-size:14.591px;}
	.st54{fill:#C32C27;}
	.st55{fill:#A8241E;}
	.st56{fill:#A5A6A9;}
	.st57{fill:#F0F0F1;}
	.st58{fill:#F3F5F5;}
	.st59{font-size:21.74px;}
	.st60{font-size:18.6343px;}
	.st61{fill:#CF2927;stroke:#CF2927;stroke-width:2.8381;stroke-miterlimit:10;}
	.st62{fill:none;stroke:#CF2927;stroke-width:5.1142;stroke-linecap:round;stroke-linejoin:round;stroke-miterlimit:10;}
	.st63{clip-path:url(#SVGID_9_);}
</style><linearGradient
     id="SVGID_3_"
     gradientUnits="userSpaceOnUse"
     x1="-0.61860001"
     y1="524.10907"
     x2="1920.5669"
     y2="524.10907"><stop
       offset="0"
       style="stop-color:#58595B"
       id="stop28" /><stop
       offset="0.5117"
       style="stop-color:#757677"
       id="stop30" /><stop
       offset="1"
       style="stop-color:#555658"
       id="stop32" /></linearGradient><linearGradient
     id="SVGID_4_"
     gradientUnits="userSpaceOnUse"
     x1="1152.7441"
     y1="1409.5017"
     x2="1152.7441"
     y2="1545.3948"><stop
       offset="0"
       style="stop-color:#FFFFFF;stop-opacity:0"
       id="stop142" /><stop
       offset="3.624004e-02"
       style="stop-color:#F4F4F4;stop-opacity:3.624004e-02"
       id="stop144" /><stop
       offset="0.3988"
       style="stop-color:#8D8D8D;stop-opacity:0.3988"
       id="stop146" /><stop
       offset="0.6904"
       style="stop-color:#414141;stop-opacity:0.6904"
       id="stop148" /><stop
       offset="0.8971"
       style="stop-color:#121212;stop-opacity:0.8971"
       id="stop150" /><stop
       offset="1"
       style="stop-color:#000000"
       id="stop152" /></linearGradient><linearGradient
     id="SVGID_5_"
     gradientUnits="userSpaceOnUse"
     x1="1186.2559"
     y1="1896.8486"
     x2="1186.2559"
     y2="2032.7417"
     gradientTransform="rotate(180,1169.5,1591)"><stop
       offset="0"
       style="stop-color:#FFFFFF;stop-opacity:0"
       id="stop157" /><stop
       offset="3.624004e-02"
       style="stop-color:#F4F4F4;stop-opacity:3.624004e-02"
       id="stop159" /><stop
       offset="0.3988"
       style="stop-color:#8D8D8D;stop-opacity:0.3988"
       id="stop161" /><stop
       offset="0.6904"
       style="stop-color:#414141;stop-opacity:0.6904"
       id="stop163" /><stop
       offset="0.8971"
       style="stop-color:#121212;stop-opacity:0.8971"
       id="stop165" /><stop
       offset="1"
       style="stop-color:#000000"
       id="stop167" /></linearGradient><g
     id="g252"
     transform="translate(-151.19316,-354.2966)"><g
       transform="translate(-344.00684,-1299.0034)"
       id="g250"><g
         id="g236"><path
           inkscape:connector-curvature="0"
           class="st0"
           d="m 523.3,1673.2 h 2.9 l 1.8,7.5 1.8,-7.5 h 2.9 l 1,10.9 h -2.1 l -0.7,-7.3 -1.8,7.3 h -2.3 l -1.8,-7.3 -0.6,7.3 h -2.1 z"
           id="path204"
           style="fill:#cf2927" /><path
           inkscape:connector-curvature="0"
           class="st0"
           d="m 538.6,1673.2 h 2.4 l 3.5,10.9 h -2.2 l -0.8,-2.4 h -3.6 l -0.8,2.4 h -2.2 z m 2.4,6.6 -1.2,-3.9 -1.3,3.9 z"
           id="path206"
           style="fill:#cf2927" /><path
           inkscape:connector-curvature="0"
           class="st0"
           d="m 545.5,1673.2 h 4.8 c 1.7,0 3,0.8 3,3.4 0,2.7 -1.1,3 -1.7,3.2 l 2.1,4.3 h -2.4 l -1.8,-4.1 -1.8,-0.2 v 4.3 h -2.1 v -10.9 z m 4.6,4.9 c 0.7,0 1.1,-0.2 1.1,-1.5 0,-1.2 -0.4,-1.5 -1.1,-1.5 h -2.5 v 3.1 h 2.5 z"
           id="path208"
           style="fill:#cf2927" /><path
           inkscape:connector-curvature="0"
           class="st0"
           d="m 557.8,1673.1 c 1.5,0 2.6,0.1 3.8,0.5 v 1.6 c 0,0 -1.8,-0.2 -3.3,-0.2 -1.5,0 -2.1,0.4 -2.1,3.7 0,2.4 0.4,3.6 2.1,3.6 1.6,0 3.3,-0.1 3.3,-0.1 v 1.6 c -1,0.3 -2.2,0.4 -3.8,0.4 -2.8,0 -3.7,-2.1 -3.7,-5.6 0,-3.5 0.8,-5.5 3.7,-5.5 z"
           id="path210"
           style="fill:#cf2927" /><path
           inkscape:connector-curvature="0"
           class="st0"
           d="m 566.2,1673.2 h 2.4 l 3.5,10.9 h -2.2 l -0.8,-2.4 h -3.6 l -0.8,2.4 h -2.2 z m 2.4,6.6 -1.2,-3.9 -1.3,3.9 z"
           id="path212"
           style="fill:#cf2927" /><path
           inkscape:connector-curvature="0"
           class="st0"
           d="m 524,1687.7 h 3.9 c 3.2,0 3.7,3.1 3.7,5.2 0,2.4 -0.9,5.1 -3.7,5.1 H 524 Z m 3.9,9.3 c 1.9,0 2.6,-1.9 2.6,-4.1 0,-3 -1,-4.2 -2.6,-4.2 h -2.8 v 8.2 h 2.8 z"
           id="path214"
           style="fill:#cf2927" /><path
           inkscape:connector-curvature="0"
           class="st0"
           d="m 535.9,1687.7 h 1 l 3.6,10.4 h -1.2 l -0.9,-2.9 h -4.1 l -0.9,2.9 h -1.3 z m 2.2,6.5 -1.7,-4.8 -1.7,4.8 z"
           id="path216"
           style="fill:#cf2927" /><path
           inkscape:connector-curvature="0"
           class="st0"
           d="m 545.4,1690.2 c 0,-2.1 1.2,-2.5 2.8,-2.5 0.8,0 3,0.3 3.5,0.3 v 0.9 c -0.9,-0.1 -3.5,-0.1 -3.5,-0.1 -1,0 -1.8,0.1 -1.8,1.5 v 0.9 c 0,1.3 0.6,1.4 1.4,1.4 h 2 c 1.9,0 2.2,1.3 2.2,2.4 v 1 c 0,2 -1.5,2.3 -2.9,2.3 -0.7,0 -2.9,-0.2 -3.5,-0.4 v -0.8 c 0.6,0.1 2.2,0.2 3.5,0.2 0.6,0 1.8,0 1.8,-1.3 v -1 c 0,-0.8 -0.2,-1.4 -1.2,-1.4 h -2 c -2.3,0 -2.5,-1.2 -2.5,-2.4 v -1 z"
           id="path218"
           style="fill:#cf2927" /><path
           inkscape:connector-curvature="0"
           class="st0"
           d="m 553.9,1687.7 h 1 v 5.8 c 0,3.6 1.1,3.6 2.8,3.6 1.4,0 2.7,0 2.7,-3.6 v -5.8 h 1.1 v 5.8 c 0,4.6 -2.1,4.6 -3.8,4.6 -1.9,0 -3.8,0.1 -3.8,-4.6 z"
           id="path220"
           style="fill:#cf2927" /><path
           inkscape:connector-curvature="0"
           class="st0"
           d="m 566.2,1687.7 h 1 l 3.6,10.4 h -1.2 l -0.9,-2.9 h -4.1 l -0.9,2.9 h -1.3 z m 2.2,6.5 -1.7,-4.8 -1.7,4.8 z"
           id="path222"
           style="fill:#cf2927" /><path
           inkscape:connector-curvature="0"
           class="st0"
           d="m 523.3,1704.2 c 0,-1.7 1.2,-2.1 2.2,-2.1 0,0 3.5,0.1 4.4,0.2 v 1.6 H 526 c -0.7,0 -0.7,0.4 -0.7,0.8 v 1.5 l 4,0.1 v 1.6 l -4,0.1 v 1.5 c 0,0.7 0.4,0.7 0.8,0.7 h 3.8 v 1.6 c -0.8,0.1 -4.2,0.2 -4.2,0.2 -0.9,0 -2.3,-0.2 -2.3,-2 v -5.8 z"
           id="path224"
           style="fill:#cf2927" /><path
           inkscape:connector-curvature="0"
           class="st0"
           d="m 530.9,1704.7 c 0,-2 1.2,-2.5 2.7,-2.6 1.4,0 3.1,0.2 3.8,0.4 v 1.5 c -0.9,-0.1 -2.8,-0.1 -3.3,-0.1 -0.8,0 -1.3,0 -1.3,1 v 0.5 c 0,0.8 0.3,1 1.1,1 h 1.6 c 1.9,0 2.3,1.5 2.3,2.6 v 0.7 c 0,2.3 -1.4,2.7 -2.7,2.7 -1.7,0 -2.8,-0.1 -3.8,-0.4 v -1.5 c 0.5,0.1 2.2,0.1 3.5,0.1 0.6,0 1.2,-0.1 1.2,-0.9 v -0.5 c 0,-0.6 -0.2,-0.9 -0.9,-0.9 h -1.5 c -2.4,0 -2.6,-1.8 -2.6,-2.6 v -1 z"
           id="path226"
           style="fill:#cf2927" /><path
           inkscape:connector-curvature="0"
           class="st0"
           d="m 542.2,1702.1 c 1.4,0 2.4,0.1 3.5,0.5 v 1.5 c 0,0 -1.7,-0.2 -3,-0.2 -1.4,0 -1.9,0.3 -1.9,3.3 0,2.2 0.4,3.3 1.9,3.3 1.4,0 3,-0.1 3,-0.1 v 1.5 c -0.9,0.3 -2,0.4 -3.5,0.4 -2.5,0 -3.4,-1.9 -3.4,-5.1 0,-3.3 0.7,-5.1 3.4,-5.1 z"
           id="path228"
           style="fill:#cf2927" /><path
           inkscape:connector-curvature="0"
           class="st0"
           d="m 550.4,1702.1 c 2.3,0 4,0.4 4,5.1 0,4.4 -1.5,5 -4,5 -2.4,0 -4,-0.4 -4,-5 0,-4.6 1.7,-5.1 4,-5.1 z m 0,8.3 c 1.6,0 2.1,-0.5 2.1,-3.2 0,-3.1 -0.6,-3.4 -2.1,-3.4 -1.5,0 -2.1,0.2 -2.1,3.4 0,2.7 0.4,3.2 2.1,3.2 z"
           id="path230"
           style="fill:#cf2927" /><path
           inkscape:connector-curvature="0"
           class="st0"
           d="m 555.7,1702.2 h 1.9 v 7.5 c 0,0.7 0.4,0.7 0.8,0.7 h 3.4 v 1.7 h -4.1 c -1.1,0 -2.1,-0.4 -2.1,-1.9 v -8 z"
           id="path232"
           style="fill:#cf2927" /><path
           inkscape:connector-curvature="0"
           class="st0"
           d="m 566,1702.2 h 2.2 l 3.2,9.9 h -2 l -0.7,-2.2 h -3.3 l -0.7,2.2 h -2 z m 2.2,6 -1.1,-3.5 -1.2,3.5 z"
           id="path234"
           style="fill:#cf2927" /></g><g
         id="g248"><path
           inkscape:connector-curvature="0"
           class="st0"
           d="m 524.7,1728.5 c -1,0 -1.4,0.1 -1.4,2.2 0,1.8 0.3,2.1 1.4,2.1 1,0 1.4,-0.3 1.4,-2.1 -0.1,-2.1 -0.5,-2.2 -1.4,-2.2 z"
           id="path238"
           style="fill:#cf2927" /><polygon
           class="st0"
           points="538.9,1731.3 538.1,1729 537.3,1731.3 "
           id="polygon240"
           style="fill:#cf2927" /><path
           inkscape:connector-curvature="0"
           class="st0"
           d="m 549.7,1729.2 c 0,-0.6 -0.4,-0.7 -0.7,-0.7 h -1.4 v 1.5 h 1.4 c 0.4,-0.1 0.7,-0.3 0.7,-0.8 z"
           id="path242"
           style="fill:#cf2927" /><path
           inkscape:connector-curvature="0"
           class="st0"
           d="m 589.7,1721.6 h -0.2 c 3.2,-6.3 5,-13.5 5,-21.1 0,-26 -21.2,-47.2 -47.2,-47.2 -26,0 -47.2,21.2 -47.2,47.2 0,7.6 1.8,14.7 5,21.1 h -0.2 c -5.4,0 -9.7,4.4 -9.7,9.7 0,5.4 4.4,9.7 9.7,9.7 h 18.3 c 7.1,4.2 15.3,6.6 24.1,6.6 8.8,0 17,-2.4 24.1,-6.6 h 18.3 c 5.4,0 9.7,-4.4 9.7,-9.7 0,-5.3 -4.3,-9.7 -9.7,-9.7 z m -82.3,6.9 h -2.6 c -0.5,0 -0.5,0.3 -0.5,0.5 v 1 l 2.6,0.1 v 1 l -2.6,0.1 v 1 c 0,0.5 0.3,0.5 0.6,0.5 h 2.5 v 1 c -0.5,0.1 -2.8,0.2 -2.8,0.2 -0.6,0 -1.5,-0.1 -1.5,-1.3 v -3.9 c 0,-1.1 0.8,-1.4 1.4,-1.4 0,0 2.3,0.1 2.9,0.1 z m 6.5,3.7 c 0,1.5 -0.9,1.8 -1.8,1.8 -1.1,0 -1.8,-0.1 -2.5,-0.3 v -1 c 0.4,0 1.4,0.1 2.3,0.1 0.4,0 0.8,-0.1 0.8,-0.6 v -0.4 c 0,-0.4 -0.1,-0.6 -0.6,-0.6 h -1 c -1.6,0 -1.7,-1.2 -1.7,-1.7 v -0.6 c 0,-1.3 0.8,-1.7 1.8,-1.7 0.9,0 2,0.1 2.5,0.3 v 1 c -0.6,-0.1 -1.9,-0.1 -2.2,-0.1 -0.5,0 -0.9,0 -0.9,0.6 v 0.3 c 0,0.5 0.2,0.6 0.7,0.6 h 1 c 1.3,0 1.5,1 1.5,1.7 v 0.6 z m 6.4,-3.6 c 0,0 -1.1,-0.1 -2,-0.1 -0.9,0 -1.3,0.2 -1.3,2.2 0,1.5 0.2,2.2 1.3,2.2 0.9,0 2,-0.1 2,-0.1 v 1 c -0.6,0.2 -1.3,0.3 -2.3,0.2 -1.7,0 -2.2,-1.3 -2.2,-3.3 0,-2.1 0.4,-3.3 2.2,-3.3 0.9,0 1.6,0.1 2.3,0.3 z m 4.4,5.3 c -1.6,0 -2.6,-0.3 -2.6,-3.3 0,-3.1 1.1,-3.4 2.6,-3.4 1.5,0 2.6,0.3 2.6,3.4 0,2.9 -1,3.3 -2.6,3.3 z m 8.7,0 h -2.7 c -0.7,0 -1.4,-0.3 -1.4,-1.3 v -5.3 h 1.2 v 4.9 c 0,0.5 0.3,0.5 0.6,0.5 h 2.2 v 1.2 z m 6.2,0 -0.5,-1.4 H 537 l -0.5,1.4 h -1.3 l 2.2,-6.5 h 1.4 l 2.1,6.5 z m 9.5,0 h -2.7 v -6.5 h 2.7 c 1.4,0 1.8,0.8 1.8,1.7 0,0.6 -0.3,1.3 -0.9,1.4 0.5,0.1 1,0.6 1,1.5 0,1.2 -0.6,1.9 -1.9,1.9 z m 5.1,0 H 553 v -6.5 h 1.2 z m 6.3,0 h -2.7 c -0.7,0 -1.4,-0.3 -1.4,-1.3 v -5.3 h 1.2 v 4.9 c 0,0.5 0.3,0.5 0.6,0.5 h 2.2 v 1.2 z m 3.2,0 h -1.2 v -6.5 h 1.2 z m -0.2,-7.1 h -0.8 l 0.8,-1.2 h 1.1 z m 7.5,7.1 h -1.2 l -2.6,-4.2 v 4.2 h -1.3 v -6.5 h 1.3 l 2.6,4.2 v -4.2 h 1.2 z m 6.8,0 h -0.9 l -0.3,-0.4 c -0.3,0.3 -0.6,0.5 -1.4,0.5 -1.8,0.1 -2.1,-1.5 -2.1,-3.3 0,-1.9 0.4,-3.3 2.1,-3.3 1,0 1.6,0.1 2.5,0.3 v 1 c -0.1,0 -1.2,-0.2 -2.2,-0.2 -1,0 -1.2,0.6 -1.2,2.2 0,1.7 0.2,2.2 1.1,2.2 0.6,0 1.1,-0.4 1.1,-0.4 v -1.2 h -0.9 v -0.8 c 0.4,-0.2 0.9,-0.2 1.6,-0.2 0.2,0 0.4,0 0.6,0 z m 7.2,-2.9 c 0,2.9 -1.4,2.9 -2.5,2.9 -1.2,0 -2.5,0.1 -2.5,-2.9 v -3.7 h 1.2 v 3.7 c 0,1.5 0.3,1.7 1.3,1.7 0.8,0 1.2,-0.3 1.2,-1.7 v -3.7 h 1.3 z m -75.9,-9.4 c -3.5,-6.3 -5.5,-13.4 -5.5,-21.1 0,-24 19.5,-43.6 43.6,-43.6 24.1,0 43.6,19.5 43.6,43.6 0,7.6 -2,14.8 -5.5,21.1 z m 82.3,6.9 h -2.6 c -0.5,0 -0.5,0.3 -0.5,0.5 v 1 l 2.6,0.1 v 1 l -2.6,0.1 v 1 c 0,0.5 0.3,0.5 0.6,0.5 h 2.5 v 1 c -0.5,0.1 -2.8,0.2 -2.8,0.2 -0.6,0 -1.5,-0.1 -1.5,-1.3 v -3.9 c 0,-1.1 0.8,-1.4 1.4,-1.4 0,0 2.3,0.1 2.9,0.1 z"
           id="path244"
           style="fill:#cf2927" /><path
           inkscape:connector-curvature="0"
           class="st0"
           d="m 549,1731 h -1.4 v 1.8 h 1.4 c 0.4,0 0.7,-0.2 0.7,-0.9 0,-0.5 -0.2,-0.9 -0.7,-0.9 z"
           id="path246"
           style="fill:#cf2927" /></g></g></g></svg>