<?xml version="1.0" encoding="UTF-8" standalone="no"?>
<!-- Generator: Adobe Illustrator 21.0.2, SVG Export Plug-In . SVG Version: 6.00 Build 0)  -->

<svg
   xmlns:dc="http://purl.org/dc/elements/1.1/"
   xmlns:cc="http://creativecommons.org/ns#"
   xmlns:rdf="http://www.w3.org/1999/02/22-rdf-syntax-ns#"
   xmlns:svg="http://www.w3.org/2000/svg"
   xmlns="http://www.w3.org/2000/svg"
   xmlns:sodipodi="http://sodipodi.sourceforge.net/DTD/sodipodi-0.dtd"
   xmlns:inkscape="http://www.inkscape.org/namespaces/inkscape"
   version="1.1"
   id="Layer_1"
   x="0px"
   y="0px"
   viewBox="0 0 23.1 16.5"
   xml:space="preserve"
   sodipodi:docname="message_footer.svg"
   width="23.1"
   height="16.5"
   inkscape:version="0.92.2 (5c3e80d, 2017-08-06)"><metadata
     id="metadata1476"><rdf:RDF><cc:Work
         rdf:about=""><dc:format>image/svg+xml</dc:format><dc:type
           rdf:resource="http://purl.org/dc/dcmitype/StillImage" /><dc:title></dc:title></cc:Work></rdf:RDF></metadata><defs
     id="defs1474" /><sodipodi:namedview
     pagecolor="#ffffff"
     bordercolor="#666666"
     borderopacity="1"
     objecttolerance="10"
     gridtolerance="10"
     guidetolerance="10"
     inkscape:pageopacity="0"
     inkscape:pageshadow="2"
     inkscape:window-width="1299"
     inkscape:window-height="713"
     id="namedview1472"
     showgrid="false"
     inkscape:zoom="1.8101934"
     inkscape:cx="102.65891"
     inkscape:cy="-25.996026"
     inkscape:window-x="67"
     inkscape:window-y="27"
     inkscape:window-maximized="1"
     inkscape:current-layer="Layer_1" /><style
     type="text/css"
     id="style2">
	.st0{fill:#CF2927;}
	.st1{fill:#B1211E;}
	.st2{fill:#FFFFFF;}
	.st3{opacity:0.8;fill:url(#SVGID_3_);}
	.st4{fill:#5A5B5D;}
	.st5{fill:#5A5B5D;stroke:#5A5B5D;stroke-width:0.4685;stroke-miterlimit:10;}
	.st6{fill:#A6A8AB;}
	.st7{fill:#F1F1F2;}
	.st8{fill:none;stroke:#FFFFFF;stroke-width:0.25;stroke-miterlimit:10;}
	.st9{font-family:'Exo-Bold';}
	.st10{font-size:46.2986px;}
	.st11{font-family:'Exo-Regular';}
	.st12{font-size:30.4149px;}
	.st13{fill:#E6E6E6;}
	.st14{font-size:18px;}
	.st15{font-family:'Exo-Light';}
	.st16{fill:none;stroke:#E6E6E6;stroke-width:2;stroke-miterlimit:10;}
	.st17{fill:#9A9C9F;}
	.st18{font-size:21.5429px;}
	.st19{fill:none;}
	.st20{fill:#808080;}
	.st21{font-size:16px;}
	.st22{opacity:0.25;fill:url(#SVGID_4_);}
	.st23{opacity:0.25;fill:url(#SVGID_5_);}
	.st24{opacity:0.67;fill:#F2F2F2;}
	.st25{font-size:13.605px;}
	.st26{letter-spacing:2;}
	.st27{fill:#F2F2F2;}
	.st28{fill:none;stroke:#CF2927;stroke-miterlimit:10;}
	.st29{fill:none;stroke:#CCCCCC;stroke-miterlimit:10;}
	.st30{font-family:'Exo-Italic';}
	.st31{font-size:10.5162px;}
	.st32{font-size:14px;}
	.st33{font-size:12px;}
	.st34{opacity:0.6;}
	.st35{font-size:10px;}
	.st36{font-family:'Exo-Black';}
	.st37{font-size:11px;}
	.st38{font-family:'Exo-DemiBold';}
	.st39{fill:#58595B;}
	.st40{font-family:'Exo-ExtraBold';}
	.st41{font-size:20.3014px;}
	.st42{fill-rule:evenodd;clip-rule:evenodd;fill:#FFFFFF;}
	.st43{font-family:'Exo-Medium';}
	.st44{font-size:15.3767px;}
	.st45{font-size:18.8593px;}
	.st46{letter-spacing:-1;}
	.st47{fill:#0071BC;}
	.st48{fill:none;stroke:#FFFFFF;stroke-miterlimit:10;}
	.st49{fill:#B3B3B3;}
	.st50{font-family:'Exo-Light-Italic';}
	.st51{letter-spacing:1;}
	.st52{font-size:18.5221px;}
	.st53{font-size:14.591px;}
	.st54{fill:#C32C27;}
	.st55{fill:#A8241E;}
	.st56{fill:#A5A6A9;}
	.st57{fill:#F0F0F1;}
	.st58{fill:#F3F5F5;}
	.st59{font-size:21.74px;}
	.st60{font-size:18.6343px;}
	.st61{fill:#CF2927;stroke:#CF2927;stroke-width:2.8381;stroke-miterlimit:10;}
	.st62{fill:none;stroke:#CF2927;stroke-width:5.1142;stroke-linecap:round;stroke-linejoin:round;stroke-miterlimit:10;}
	.st63{clip-path:url(#SVGID_9_);}
</style><linearGradient
     id="SVGID_3_"
     gradientUnits="userSpaceOnUse"
     x1="-0.61860001"
     y1="524.10907"
     x2="1920.5669"
     y2="524.10907"><stop
       offset="0"
       style="stop-color:#58595B"
       id="stop28" /><stop
       offset="0.5117"
       style="stop-color:#757677"
       id="stop30" /><stop
       offset="1"
       style="stop-color:#555658"
       id="stop32" /></linearGradient><linearGradient
     id="SVGID_4_"
     gradientUnits="userSpaceOnUse"
     x1="1152.7441"
     y1="1409.5017"
     x2="1152.7441"
     y2="1545.3948"><stop
       offset="0"
       style="stop-color:#FFFFFF;stop-opacity:0"
       id="stop142" /><stop
       offset="3.624004e-02"
       style="stop-color:#F4F4F4;stop-opacity:3.624004e-02"
       id="stop144" /><stop
       offset="0.3988"
       style="stop-color:#8D8D8D;stop-opacity:0.3988"
       id="stop146" /><stop
       offset="0.6904"
       style="stop-color:#414141;stop-opacity:0.6904"
       id="stop148" /><stop
       offset="0.8971"
       style="stop-color:#121212;stop-opacity:0.8971"
       id="stop150" /><stop
       offset="1"
       style="stop-color:#000000"
       id="stop152" /></linearGradient><linearGradient
     id="SVGID_5_"
     gradientUnits="userSpaceOnUse"
     x1="1186.2559"
     y1="1896.8486"
     x2="1186.2559"
     y2="2032.7417"
     gradientTransform="rotate(180,1169.5,1591)"><stop
       offset="0"
       style="stop-color:#FFFFFF;stop-opacity:0"
       id="stop157" /><stop
       offset="3.624004e-02"
       style="stop-color:#F4F4F4;stop-opacity:3.624004e-02"
       id="stop159" /><stop
       offset="0.3988"
       style="stop-color:#8D8D8D;stop-opacity:0.3988"
       id="stop161" /><stop
       offset="0.6904"
       style="stop-color:#414141;stop-opacity:0.6904"
       id="stop163" /><stop
       offset="0.8971"
       style="stop-color:#121212;stop-opacity:0.8971"
       id="stop165" /><stop
       offset="1"
       style="stop-color:#000000"
       id="stop167" /></linearGradient><g
     transform="translate(-462.4,-6115.3)"
     id="g384"><path
       inkscape:connector-curvature="0"
       class="st2"
       d="m 481.1,6128.1 c -0.1,0 -0.2,0 -0.3,-0.1 l -4.3,-4 c -0.1,-0.1 -0.2,-0.4 0,-0.5 0.1,-0.1 0.4,-0.2 0.5,0 l 4.3,4 c 0.1,0.1 0.2,0.4 0,0.5 0,0.1 -0.1,0.1 -0.2,0.1 z m 0,0"
       id="path376"
       style="fill:#ffffff" /><path
       inkscape:connector-curvature="0"
       class="st2"
       d="m 466.8,6128.1 c -0.1,0 -0.2,0 -0.3,-0.1 -0.1,-0.1 -0.1,-0.4 0,-0.5 l 4.3,-4 c 0.2,-0.1 0.4,-0.1 0.5,0 0.1,0.2 0.1,0.4 0,0.5 l -4.3,4 c 0,0.1 -0.1,0.1 -0.2,0.1 z m 0,0"
       id="path378"
       style="fill:#ffffff" /><path
       inkscape:connector-curvature="0"
       class="st2"
       d="m 483.6,6131.8 h -19.3 c -1,0 -1.9,-0.8 -1.9,-1.9 v -12.7 c 0,-1 0.8,-1.9 1.9,-1.9 h 19.3 c 1,0 1.9,0.8 1.9,1.9 v 12.7 c 0,1.1 -0.9,1.9 -1.9,1.9 z m -19.3,-15.6 c -0.6,0 -1.1,0.5 -1.1,1.1 v 12.7 c 0,0.6 0.5,1.1 1.1,1.1 h 19.3 c 0.6,0 1.1,-0.5 1.1,-1.1 v -12.7 c 0,-0.6 -0.5,-1.1 -1.1,-1.1 z m 0,0"
       id="path380"
       style="fill:#ffffff" /><path
       inkscape:connector-curvature="0"
       class="st2"
       d="m 473.9,6125.5 c -0.5,0 -1,-0.2 -1.4,-0.5 l -9.5,-8.3 c -0.2,-0.1 -0.2,-0.4 0,-0.5 0.1,-0.2 0.4,-0.2 0.5,0 l 9.5,8.3 c 0.5,0.4 1.3,0.4 1.8,0 l 9.5,-8.3 c 0.2,-0.1 0.4,-0.1 0.5,0 0.1,0.2 0.1,0.4 0,0.5 l -9.5,8.3 c -0.4,0.3 -0.9,0.5 -1.4,0.5 z m 0,0"
       id="path382"
       style="fill:#ffffff" /></g></svg>