<?xml version="1.0" encoding="UTF-8" standalone="no"?>
<!-- Generator: Adobe Illustrator 21.0.2, SVG Export Plug-In . SVG Version: 6.00 Build 0)  -->

<svg
   xmlns:dc="http://purl.org/dc/elements/1.1/"
   xmlns:cc="http://creativecommons.org/ns#"
   xmlns:rdf="http://www.w3.org/1999/02/22-rdf-syntax-ns#"
   xmlns:svg="http://www.w3.org/2000/svg"
   xmlns="http://www.w3.org/2000/svg"
   xmlns:sodipodi="http://sodipodi.sourceforge.net/DTD/sodipodi-0.dtd"
   xmlns:inkscape="http://www.inkscape.org/namespaces/inkscape"
   version="1.1"
   id="Camada_1"
   x="0px"
   y="0px"
   viewBox="0 0 148.03116 78.546005"
   xml:space="preserve"
   sodipodi:docname="sistema_bilingue.svg"
   width="148.03116"
   height="78.546005"
   inkscape:version="0.92.2 (5c3e80d, 2017-08-06)"><metadata
     id="metadata107"><rdf:RDF><cc:Work
         rdf:about=""><dc:format>image/svg+xml</dc:format><dc:type
           rdf:resource="http://purl.org/dc/dcmitype/StillImage" /><dc:title></dc:title></cc:Work></rdf:RDF></metadata><defs
     id="defs105" /><sodipodi:namedview
     pagecolor="#ffffff"
     bordercolor="#666666"
     borderopacity="1"
     objecttolerance="10"
     gridtolerance="10"
     guidetolerance="10"
     inkscape:pageopacity="0"
     inkscape:pageshadow="2"
     inkscape:window-width="1299"
     inkscape:window-height="713"
     id="namedview103"
     showgrid="false"
     inkscape:zoom="1.0076272"
     inkscape:cx="-225.49633"
     inkscape:cy="90.817702"
     inkscape:window-x="67"
     inkscape:window-y="27"
     inkscape:window-maximized="1"
     inkscape:current-layer="g100" /><style
     type="text/css"
     id="style2">
	.st0{fill:#3A3A3A;}
	.st1{fill:#9E302C;}
	.st2{fill:#892A23;}
	.st3{fill:#A2A3A6;}
	.st4{fill:#EFEEEF;}
	.st5{fill:#373737;}
	.st6{fill:#A7302C;}
</style><g
     id="g100"
     transform="translate(-715.9,-333.7841)"><g
       id="g82"
       style="fill:#ffffff;fill-opacity:1"><g
         id="g48"
         style="fill:#ffffff;fill-opacity:1"><path
           class="st5"
           d="m 727.6,400.3 c 0.2,-1.4 1,-1.9 2.1,-1.8 l 4.4,0.2 -0.1,0.8 h -4.4 c -0.7,0 -0.8,0.4 -0.9,0.8 l -0.4,2.8 4.6,0.1 -0.1,0.8 -4.6,0.1 -0.4,2.8 c -0.1,0.7 0.4,0.7 0.8,0.7 h 4.3 l -0.1,0.8 -4.3,0.2 c -0.9,0.1 -1.8,-0.4 -1.6,-1.8 z"
           id="path16"
           style="fill:#ffffff;fill-opacity:1"
           inkscape:connector-curvature="0" /><path
           class="st5"
           d="m 738.5,401.2 c 0.6,0 1.8,0.2 2.7,0.6 l 0.6,-4 h 1 l -1.7,11 h -0.7 l -0.1,-0.8 c -0.4,0.3 -1.8,0.9 -2.7,0.9 -2,0 -2.3,-2.1 -2,-3.8 0.2,-2.1 0.8,-3.9 2.9,-3.9 z m -1,6.5 c 1.1,0 2,-0.3 2.8,-0.6 l 0.7,-4.5 c -0.9,-0.3 -1.6,-0.4 -2.7,-0.4 -0.8,0 -1.5,0.5 -1.9,2.8 -0.2,1.7 0.1,2.7 1.1,2.7 z"
           id="path18"
           style="fill:#ffffff;fill-opacity:1"
           inkscape:connector-curvature="0" /><path
           class="st5"
           d="m 744.9,401.3 h 1 l -0.8,5.2 c -0.2,1.1 0.3,1.3 1,1.3 1.1,0 1.7,-0.3 2.9,-0.8 l 0.9,-5.7 h 1 l -1.2,7.4 H 749 l -0.2,-0.9 c -0.9,0.5 -1.8,1 -2.9,1 -1.5,0 -2.1,-1 -1.9,-2.4 z"
           id="path20"
           style="fill:#ffffff;fill-opacity:1"
           inkscape:connector-curvature="0" /><path
           class="st5"
           d="m 756,401.2 c 0.7,0 2.2,0.2 3.1,0.4 l -0.1,0.8 c 0,0 -1.9,-0.1 -3.2,-0.1 -0.8,0 -1.4,0.1 -1.9,2.8 -0.4,2.1 0.1,2.7 1,2.7 1.3,0 3.3,-0.2 3.3,-0.2 l -0.1,0.8 c -1.2,0.3 -2.1,0.4 -3.2,0.4 -1.4,0 -2.5,-1 -2,-3.8 0.7,-3.6 1.8,-3.8 3.1,-3.8 z"
           id="path22"
           style="fill:#ffffff;fill-opacity:1"
           inkscape:connector-curvature="0" /><path
           class="st5"
           d="m 763.8,401.1 c 1,-0.1 2.9,0.2 3.6,0.9 l -1,6.7 h -0.7 l -0.2,-0.8 c -0.4,0.3 -1.5,0.9 -2.6,0.9 -1.6,0 -2.7,-0.6 -2.1,-4 0.5,-3 1.8,-3.5 3,-3.7 z m -0.9,6.7 c 1.1,0 1.7,-0.3 2.7,-0.7 l 0.7,-4.7 c -0.8,-0.2 -1.8,-0.3 -2.4,-0.2 -0.9,0.2 -1.7,0.4 -2.1,3 -0.4,1.9 0,2.6 1.1,2.6 z"
           id="path24"
           style="fill:#ffffff;fill-opacity:1"
           inkscape:connector-curvature="0" /><path
           class="st5"
           d="m 772.5,401.2 c 0.7,0 2.2,0.2 3.1,0.4 l -0.1,0.8 c 0,0 -1.9,-0.1 -3.2,-0.1 -0.8,0 -1.4,0.1 -1.9,2.8 -0.4,2.1 0.1,2.7 1,2.7 1.3,0 3.3,-0.2 3.3,-0.2 l -0.1,0.8 c -1.2,0.3 -2.1,0.4 -3.2,0.4 -1.4,0 -2.5,-1 -2,-3.8 0.7,-3.6 1.8,-3.8 3.1,-3.8 z m -2.2,9.4 0.8,-0.2 c 0.4,-0.2 0.6,-0.6 0.6,-1.2 0.4,0 0.9,0 0.9,0 -0.2,1.4 -0.6,1.9 -1.7,1.9 h -0.7 z"
           id="path26"
           style="fill:#ffffff;fill-opacity:1"
           inkscape:connector-curvature="0" /><path
           class="st5"
           d="m 780.2,401.1 c 1,-0.1 2.9,0.2 3.6,0.9 l -1,6.7 h -0.7 l -0.2,-0.8 c -0.4,0.3 -1.5,0.9 -2.6,0.9 -1.6,0 -2.7,-0.6 -2.1,-4 0.5,-3 1.9,-3.5 3,-3.7 z m -0.8,6.7 c 1.1,0 1.7,-0.3 2.7,-0.7 l 0.7,-4.7 c -0.8,-0.2 -1.8,-0.3 -2.4,-0.2 -0.9,0.2 -1.7,0.4 -2.1,3 -0.4,1.9 0,2.6 1.1,2.6 z m 1.2,-9 c 0.7,0 1,0.5 1.4,0.5 0.3,0 1.3,-0.4 1.4,-0.5 l 0.2,0.6 c -0.6,0.4 -1.1,0.9 -1.8,0.9 -0.8,0 -0.9,-0.5 -1.4,-0.5 -0.6,0 -1,0.3 -1.4,0.5 l -0.2,-0.6 c 0.7,-0.5 1.2,-0.9 1.8,-0.9 z"
           id="path28"
           style="fill:#ffffff;fill-opacity:1"
           inkscape:connector-curvature="0" /><path
           class="st5"
           d="m 789.7,401.2 c 2.3,0 3.1,1.3 2.7,3.9 -0.5,2.8 -1.3,3.7 -3.7,3.7 -2.4,0 -3.3,-1 -2.8,-3.7 0.5,-3 1.4,-3.9 3.8,-3.9 z m -1,6.5 c 1.5,0 2.2,-0.2 2.7,-2.6 0.4,-2.4 -0.1,-2.9 -1.8,-2.9 -1.6,0 -2.3,0.3 -2.7,2.9 -0.4,2.4 0.4,2.6 1.8,2.6 z"
           id="path30"
           style="fill:#ffffff;fill-opacity:1"
           inkscape:connector-curvature="0" /><path
           class="st5"
           d="m 801,398.5 h 4 c 2,0 2.4,1.5 2.2,2.7 -0.2,1.4 -0.9,2 -1.7,2.2 0.4,0.1 1.2,0.9 1,2.5 -0.2,1.6 -1,2.8 -3.2,2.8 h -4 z m 2.5,9.2 c 0.7,0 1.7,-0.2 2,-1.8 0.2,-1 -0.2,-2 -1.4,-2 h -2.9 l -0.6,3.8 z m 0.7,-4.9 c 1,0 1.7,-0.5 1.9,-1.7 0.2,-1.4 -0.4,-1.6 -1.3,-1.6 h -2.9 l -0.5,3.3 z"
           id="path32"
           style="fill:#ffffff;fill-opacity:1"
           inkscape:connector-curvature="0" /><path
           class="st5"
           d="m 809.7,401.3 h 1 l -1.2,7.4 h -1 z m 0.1,-2 c 0,-0.2 0.2,-0.3 0.4,-0.3 h 0.7 c 0.2,0 0.3,0.2 0.3,0.3 l -0.1,0.8 c 0,0.2 -0.2,0.3 -0.4,0.3 H 810 c -0.2,0 -0.3,-0.1 -0.3,-0.3 z"
           id="path34"
           style="fill:#ffffff;fill-opacity:1"
           inkscape:connector-curvature="0" /><path
           class="st5"
           d="m 814.1,397.8 h 1 l -1.3,8.3 c -0.2,1.4 0,1.5 0.6,1.6 0,0 1,0.3 1,0.3 l -0.1,0.8 h -1 c -1.3,0 -1.9,-0.8 -1.6,-2.6 z"
           id="path36"
           style="fill:#ffffff;fill-opacity:1"
           inkscape:connector-curvature="0" /><path
           class="st5"
           d="m 818.4,401.3 h 1 l -1.2,7.4 h -1 z m 1.9,-2.8 h 1.3 l -2.2,1.9 h -1 z"
           id="path38"
           style="fill:#ffffff;fill-opacity:1"
           inkscape:connector-curvature="0" /><path
           class="st5"
           d="m 822.2,401.3 h 0.7 l 0.2,0.9 c 0.9,-0.5 1.8,-1 2.9,-1 1.5,0 2.1,1.1 1.9,2.4 l -0.8,5.2 h -1 l 0.8,-5.2 c 0.1,-0.9 -0.3,-1.3 -1,-1.3 -1.1,0 -1.7,0.3 -2.9,0.8 l -0.9,5.7 h -1 z"
           id="path40"
           style="fill:#ffffff;fill-opacity:1"
           inkscape:connector-curvature="0" /><path
           class="st5"
           d="m 829.4,411.5 h 3.6 c 0.7,0 1.3,-0.4 1.4,-1.3 l 0.3,-1.9 c -0.9,0.4 -1.9,0.5 -2.5,0.5 -2.2,0 -2.5,-1.8 -2.1,-4 0.4,-2.3 1.5,-3.7 3.1,-3.7 1.5,0 3,0.3 3.7,0.3 l -1.4,8.6 c -0.3,1.7 -1.5,2.5 -2.6,2.3 l -3.5,-0.3 z m 2.8,-3.7 c 1,0 1.5,-0.1 2.7,-0.3 l 0.8,-5.2 h -2.5 c -1.5,0 -1.9,2.1 -2,2.7 -0.3,0.9 -0.6,2.8 1,2.8 z"
           id="path42"
           style="fill:#ffffff;fill-opacity:1"
           inkscape:connector-curvature="0" /><path
           class="st5"
           d="m 839.5,401.3 h 1 l -0.8,5.2 c -0.2,1.1 0.3,1.3 1,1.3 1.1,0 1.7,-0.3 2.9,-0.8 l 0.9,-5.7 h 1 l -1.2,7.4 h -0.7 l -0.2,-0.9 c -0.9,0.5 -1.8,1 -2.9,1 -1.5,0 -2.1,-1 -1.9,-2.4 z"
           id="path44"
           style="fill:#ffffff;fill-opacity:1"
           inkscape:connector-curvature="0" /><path
           class="st5"
           d="m 851.2,401.1 c 1.8,0 2.9,0.5 2.7,2.1 -0.4,3.1 -4.9,2.5 -5.4,2.2 -0.3,1.7 0,2.3 1,2.3 1.1,0.1 2.4,0 3.5,-0.2 l -0.1,0.8 c -1.2,0.3 -2.3,0.4 -3.5,0.4 -1.8,0 -2.3,-1.3 -1.8,-4 0.4,-2.2 0.9,-3.6 3.6,-3.6 z m 1.7,2.2 c 0.2,-1 -0.4,-1.1 -1.7,-1.1 -2.2,0 -2.3,1.3 -2.6,2.6 0,0 4,0.4 4.3,-1.5 z"
           id="path46"
           style="fill:#ffffff;fill-opacity:1"
           inkscape:connector-curvature="0" /></g><g
         id="g64"
         style="fill:#ffffff;fill-opacity:1"><path
           class="st5"
           d="m 719.8,356.8 c 0.1,-0.6 0.5,-1 1.1,-1 h 3.3 c 0.6,0 0.8,0.4 0.7,1 l -0.4,2.9 c -0.1,0.6 -0.5,0.9 -1,0.9 h -3.2 c -0.5,0 -0.8,-0.3 -0.8,-0.9 z m -0.7,6 h 4.4 l -3.2,20.3 h -4.4 z"
           id="path50"
           style="fill:#ffffff;fill-opacity:1"
           inkscape:connector-curvature="0" /><path
           class="st5"
           d="m 729.9,362.8 h 3.4 l 0.7,2.3 c 2.2,-1.3 3.9,-2.6 7,-2.6 2.4,0 4.2,1.2 4.8,2.9 2.1,-1.5 4.8,-2.9 8.2,-2.9 3.9,0 5.7,2.9 5,6.9 l -2.1,13.6 h -4.4 l 2.2,-13.7 c 0.3,-2 -0.7,-3.1 -2.2,-3.1 -2.5,0 -4.1,0.5 -6.2,1.8 l -0.2,1.4 -2.2,13.6 h -4.4 l 2.2,-13.7 c 0.3,-2 -0.7,-3.1 -2.2,-3.1 -2.5,0 -3.7,0.6 -6,1.9 l -2.3,14.9 h -4.4 z"
           id="path52"
           style="fill:#ffffff;fill-opacity:1"
           inkscape:connector-curvature="0" /><path
           class="st5"
           d="m 789.6,362.8 h 4.4 l -2.2,13.8 c -0.4,2.5 0.7,3.1 2.2,3.1 2.5,0 3.9,-0.6 6.2,-1.9 l 2.3,-14.9 h 4.4 l -3.2,20.3 h -3.5 l -0.6,-2.2 c -2.3,1.4 -4.2,2.6 -7.3,2.6 -4.5,0 -5.6,-3.1 -5,-6.9 z"
           id="path54"
           style="fill:#ffffff;fill-opacity:1"
           inkscape:connector-curvature="0" /><path
           class="st5"
           d="m 814.7,353.2 h 4.4 l -3.5,22.2 c -0.6,3.4 0.1,3.8 1.3,4.1 l 2.5,0.7 -0.5,2.9 h -3.1 c -3.6,0 -5.5,-2.1 -4.7,-7.2 z"
           id="path56"
           style="fill:#ffffff;fill-opacity:1"
           inkscape:connector-curvature="0" /><path
           class="st5"
           d="m 823.7,379.6 h 9.9 c 0.2,0 1.6,0.1 1.9,-1.6 l 0.2,-1.4 c 0.2,-1 -0.1,-1.6 -1.4,-1.6 h -5 c -3.6,0 -5.6,-1.7 -5,-5.5 l 0.3,-1.9 c 0.5,-3.3 2.2,-5.1 6.1,-5.1 3.2,0 8.8,0.2 10.4,0.9 l -0.5,2.9 h -9.5 c -1.8,0 -2.1,1 -2.2,1.7 l -0.2,1.4 c -0.3,1.9 0.8,1.6 1.6,1.6 h 5.1 c 3.7,0 5.1,2.5 4.6,5.4 l -0.3,2.4 c -0.6,4.2 -3.5,4.7 -5.8,4.7 -3.1,0 -9.6,-0.3 -10.9,-1 z"
           id="path58"
           style="fill:#ffffff;fill-opacity:1"
           inkscape:connector-curvature="0" /><path
           class="st5"
           d="m 859.5,368.7 c 0.4,-2.2 -0.9,-2.6 -3.5,-2.5 -4.5,0 -4.8,2.8 -5.4,5.7 -0.1,0 8.1,1.1 8.9,-3.2 m -3.3,-6.3 c 4.6,0 8.1,1.3 7.7,5.9 -0.8,8.9 -12.4,7.2 -13.8,6.6 -0.6,3.7 0.2,4.7 2.9,4.8 2.5,0.2 6.1,-0.2 8.7,-0.6 l -0.5,3.2 c -3.1,0.9 -6.4,1.3 -10.2,1.1 -4.9,-0.1 -6.3,-4 -5,-11.4 1.2,-6.3 2.8,-9.5 10.2,-9.6"
           id="path60"
           style="fill:#ffffff;fill-opacity:1"
           inkscape:connector-curvature="0" /><path
           class="st5"
           d="m 777.9,372.9 c -0.9,5.7 -2.5,6.5 -4.5,6.8 -2.1,0.3 -4.2,-0.2 -5.4,-0.8 l 2.1,-12.6 h 5.3 c 2.4,0 3.3,2.1 2.5,6.6 m -1.4,-10.2 c -3.4,0 -7.4,0.3 -10.3,0.8 L 762,389 h 4.4 l 1.1,-7 c 1.7,1 4.4,1.5 6.1,1.5 5.4,0 7.8,-3.9 8.7,-9.8 0.8,-5.6 0,-11 -5.8,-11"
           id="path62"
           style="fill:#ffffff;fill-opacity:1"
           inkscape:connector-curvature="0" /></g><g
         id="g80"
         style="fill:#ffffff;fill-opacity:1"><path
           class="st5"
           d="m 758.8,333.8 c -1.5,-0.1 -3.3,0.2 -3.8,3 l -0.2,1 c -0.1,0.6 -0.2,1.6 0.4,2.2 0.4,0.5 1.2,0.8 2.2,0.8 h 2.1 c 0.4,0 0.6,0.1 0.7,0.2 0.1,0.2 0.1,0.6 0,1 l -0.2,1 c -0.1,0.8 -0.7,1.1 -1.9,1.1 -1.5,0 -3.1,-0.1 -3.7,-0.2 h -0.3 l -0.2,1.5 0.3,0.1 c 0.6,0.1 2.6,0.4 3.8,0.4 0.9,0 3.4,0 3.8,-2.8 l 0.2,-1 c 0.1,-0.7 0.1,-1.6 -0.5,-2.3 -0.4,-0.5 -1,-0.7 -1.9,-0.7 h -2.3 c -0.3,0 -0.7,0 -0.8,-0.1 -0.1,-0.1 -0.2,-0.4 -0.1,-1 l 0.2,-1 c 0.2,-1.2 0.7,-1.4 1.8,-1.3 0.1,0 3.1,0.1 3.8,0.1 h 0.3 l 0.2,-1.5 h -0.3 c -0.6,-0.2 -2.7,-0.4 -3.6,-0.5 z"
           id="path66"
           style="fill:#ffffff;fill-opacity:1"
           inkscape:connector-curvature="0" /><polygon
           class="st5"
           points="768.5,333.9 766.7,333.9 764.8,345.8 766.6,345.8 "
           id="polygon68"
           style="fill:#ffffff;fill-opacity:1" /><path
           class="st5"
           d="m 774.7,333.8 c -1.5,-0.1 -3.3,0.2 -3.8,3 l -0.2,1 c -0.1,0.6 -0.2,1.6 0.4,2.2 0.4,0.5 1.2,0.8 2.2,0.8 h 2.1 c 0.4,0 0.6,0.1 0.7,0.2 0.1,0.2 0.1,0.6 0,1 l -0.2,1 c -0.1,0.8 -0.7,1.1 -1.9,1.1 -1.5,0 -3.1,-0.1 -3.7,-0.2 H 770 l -0.2,1.5 0.3,0.1 c 0.6,0.1 2.6,0.4 3.8,0.4 0.9,0 3.4,0 3.8,-2.8 l 0.2,-1 c 0.1,-0.7 0.1,-1.6 -0.5,-2.3 -0.4,-0.5 -1,-0.7 -1.9,-0.7 h -2.3 c -0.3,0 -0.7,0 -0.8,-0.1 -0.1,-0.1 -0.2,-0.4 -0.1,-1 l 0.2,-1 c 0.2,-1.2 0.7,-1.4 1.8,-1.3 0.1,0 3.1,0.1 3.8,0.1 h 0.3 l 0.2,-1.5 h -0.3 c -0.6,-0.2 -2.7,-0.4 -3.6,-0.5 z"
           id="path70"
           style="fill:#ffffff;fill-opacity:1"
           inkscape:connector-curvature="0" /><polygon
           class="st5"
           points="783.1,345.8 784.9,345.8 786.5,335.7 789.9,335.7 790.2,333.9 781.7,333.9 781.4,335.7 784.7,335.7 "
           id="polygon72"
           style="fill:#ffffff;fill-opacity:1" /><path
           class="st5"
           d="m 792.5,336.2 -1.2,7.4 c -0.1,0.9 0.1,1.4 0.4,1.7 0.4,0.4 0.9,0.6 1.5,0.6 0.1,0 0.1,0 0.2,0 l 5,-0.3 0.3,-1.5 h -5.1 c -0.2,0 -0.4,0 -0.5,-0.1 0,0 -0.1,-0.1 0,-0.4 l 0.4,-2.8 5.1,-0.2 0.3,-1.5 -5,-0.2 0.4,-2.7 c 0.1,-0.4 0.2,-0.6 0.6,-0.6 h 5.1 l 0.2,-1.5 -5.2,-0.3 c -1,0.1 -2.2,0.4 -2.5,2.4 z"
           id="path74"
           style="fill:#ffffff;fill-opacity:1"
           inkscape:connector-curvature="0" /><polygon
           class="st5"
           points="804,333.9 801.3,345.8 803.1,345.8 804.9,337.9 806.2,345.8 807.8,345.8 811.5,338 810.9,345.8 812.6,345.8 813.6,333.9 811.5,333.9 807.4,342.6 806,333.9 "
           id="polygon76"
           style="fill:#ffffff;fill-opacity:1" /><path
           class="st5"
           d="m 822.8,333.9 h -1.6 l -6.2,11.9 h 2 l 1.7,-3.1 h 4.1 l 0.6,3.1 h 1.8 z m -0.5,7 h -2.9 l 2.1,-4.1 z"
           id="path78"
           style="fill:#ffffff;fill-opacity:1"
           inkscape:connector-curvature="0" /></g></g><g
       id="g88"><path
         class="st6"
         d="M 790,306.3"
         id="path84"
         inkscape:connector-curvature="0"
         style="fill:#a7302c" /><path
         class="st6"
         d="m 790,306.3 c 0,0 0,0 0,0"
         id="path86"
         inkscape:connector-curvature="0"
         style="fill:#a7302c" /></g></g></svg>